<?xml version="1.0" encoding="UTF-8" ?>
<!DOCTYPE svg PUBLIC "-//W3C//DTD SVG 1.1//EN" "http://www.w3.org/Graphics/SVG/1.1/DTD/svg11.dtd">
<svg width="1536pt" height="1024pt" viewBox="0 0 1536 1024" version="1.1" xmlns="http://www.w3.org/2000/svg">
<g id="#a81e1eff">
<path fill="#a81e1e" opacity="1.00" d=" M 0.00 0.00 L 1536.00 0.00 L 1536.00 1024.00 L 0.00 1024.00 L 0.00 0.00 M 1185.05 152.10 C 1184.85 163.04 1184.85 173.99 1185.06 184.93 C 1186.70 185.03 1188.36 185.15 1190.04 185.16 C 1191.07 184.93 1193.38 185.61 1193.52 184.03 C 1193.98 178.04 1193.59 172.01 1193.71 166.01 C 1193.55 160.66 1194.25 155.21 1192.87 149.98 C 1190.28 149.52 1185.72 148.54 1185.05 152.10 M 609.89 164.36 C 597.92 166.66 586.79 174.32 581.19 185.26 C 575.40 196.45 577.06 211.76 586.68 220.34 C 593.71 226.63 606.40 222.89 609.03 213.92 C 610.28 209.88 607.62 205.57 603.74 204.31 C 601.96 203.58 599.40 203.28 599.11 200.93 C 599.63 197.24 603.81 196.13 606.91 197.28 C 614.07 199.95 618.66 208.61 616.25 215.98 C 613.63 224.69 604.97 230.97 595.96 231.25 C 591.39 231.49 587.19 229.52 583.10 227.80 C 582.17 236.18 579.01 244.93 572.05 250.14 C 568.15 253.11 562.74 253.91 558.27 251.74 C 551.98 249.65 549.74 240.48 554.78 235.95 C 555.61 235.94 557.25 235.93 558.08 235.92 C 560.27 238.17 559.07 241.23 558.83 243.93 C 560.90 245.61 563.82 246.94 566.37 245.37 C 574.54 240.43 577.53 228.55 572.84 220.27 C 568.36 211.64 557.37 206.81 548.10 210.13 C 533.82 214.12 523.00 229.16 525.33 244.08 C 526.85 255.07 531.68 266.17 540.92 272.81 C 548.32 278.43 557.78 279.63 566.66 281.19 C 567.97 285.64 570.30 290.09 574.54 292.37 C 578.79 295.09 583.95 295.38 588.86 295.30 C 587.21 290.42 586.35 285.22 587.02 280.07 C 588.32 272.23 594.09 265.54 601.33 262.44 C 607.23 260.09 614.48 261.41 618.77 266.22 C 623.87 270.97 625.19 279.78 620.20 285.09 C 618.56 287.70 613.88 288.93 612.41 285.51 C 611.16 281.66 617.31 279.05 615.33 275.12 C 614.14 271.27 610.15 267.97 605.95 269.05 C 599.25 271.20 593.48 277.74 594.01 285.08 C 594.68 291.86 597.89 298.44 603.20 302.80 C 613.36 311.39 626.94 315.00 640.06 315.00 C 654.97 314.85 669.57 307.35 678.25 295.22 C 681.28 291.10 682.60 285.91 686.20 282.19 C 689.53 278.37 695.02 276.31 699.98 277.84 C 705.22 278.84 708.80 283.13 712.06 287.00 C 723.20 287.88 734.30 282.92 741.97 274.98 C 750.26 266.79 754.97 255.46 756.41 244.01 C 753.38 246.89 749.91 249.44 745.87 250.68 C 737.79 253.36 728.70 250.99 722.00 246.03 C 712.81 239.14 707.46 228.61 699.43 220.58 C 692.81 213.23 682.99 208.83 673.08 209.19 C 666.64 209.91 660.30 212.20 655.14 216.17 C 648.27 221.49 643.93 230.32 645.08 239.09 C 645.76 244.57 647.46 250.71 652.43 253.83 C 656.33 256.26 661.15 257.99 665.78 256.87 C 668.66 255.60 670.42 252.50 670.09 249.37 C 668.02 247.73 665.68 245.96 665.73 243.04 C 669.46 239.48 674.87 242.57 676.31 246.81 C 679.76 255.37 671.75 265.24 662.93 265.21 C 656.94 265.59 651.42 262.57 646.66 259.25 C 639.92 254.06 638.01 245.09 637.19 237.07 C 637.05 227.72 641.29 218.50 648.12 212.17 C 651.94 208.62 656.85 206.70 661.20 203.94 C 661.38 188.99 651.40 175.27 638.26 168.77 C 629.71 163.92 619.48 163.00 609.89 164.36 M 1152.07 190.08 C 1151.42 194.99 1151.45 200.00 1152.00 204.92 C 1161.65 205.52 1171.32 205.08 1180.98 205.24 C 1195.61 205.13 1210.26 205.41 1224.89 205.03 C 1228.22 204.58 1226.63 200.34 1227.02 198.05 C 1226.65 194.75 1228.53 189.15 1223.87 188.33 C 1202.26 187.87 1180.60 188.28 1158.98 188.09 C 1156.61 188.19 1153.53 187.75 1152.07 190.08 M 178.14 193.05 C 177.91 193.34 177.46 193.91 177.23 194.20 C 176.90 204.72 176.81 215.33 177.27 225.85 C 179.83 226.84 182.94 226.71 185.53 225.82 C 186.19 224.31 185.91 222.60 186.01 221.01 C 185.94 212.64 186.11 204.28 185.92 195.92 C 186.12 191.95 180.77 191.62 178.14 193.05 M 1104.73 227.74 C 1091.49 239.57 1081.67 256.01 1080.28 273.96 C 1079.77 285.07 1081.78 296.34 1086.71 306.36 C 1098.38 330.45 1123.09 347.13 1149.39 350.79 C 1147.90 349.12 1145.94 348.00 1144.09 346.80 C 1133.87 339.79 1125.64 330.09 1119.70 319.26 C 1105.65 291.68 1106.29 256.07 1124.37 230.44 C 1130.57 221.35 1139.15 214.25 1148.13 208.04 C 1131.90 209.11 1116.81 217.19 1104.73 227.74 M 1229.31 207.98 C 1239.70 214.92 1249.21 223.47 1255.82 234.17 C 1275.15 265.32 1270.77 309.01 1245.80 335.82 C 1240.77 341.41 1234.62 345.78 1228.70 350.34 C 1236.88 350.17 1244.63 347.14 1252.05 343.94 C 1273.40 334.00 1291.01 314.73 1296.50 291.55 C 1299.24 280.30 1297.70 268.29 1293.28 257.67 C 1286.55 240.93 1274.01 226.68 1258.41 217.64 C 1249.55 212.49 1239.75 208.09 1229.31 207.98 M 1145.40 216.51 C 1134.20 225.33 1125.36 237.18 1120.53 250.64 C 1116.00 262.20 1115.27 274.87 1116.28 287.14 C 1118.59 312.16 1133.80 336.11 1156.41 347.48 C 1161.67 349.44 1167.44 348.45 1172.94 348.83 C 1166.78 338.83 1163.40 327.44 1161.12 316.01 C 1158.74 303.47 1157.76 290.68 1157.96 277.93 C 1157.76 254.29 1161.15 229.66 1173.29 208.98 C 1168.84 209.09 1164.37 208.73 1159.94 209.13 C 1154.61 210.42 1149.77 213.27 1145.40 216.51 M 1172.57 224.41 C 1167.08 238.60 1165.50 253.90 1164.58 268.98 C 1163.75 279.33 1164.56 289.73 1165.46 300.05 C 1167.23 314.79 1169.45 330.00 1177.07 343.01 C 1178.80 345.81 1181.03 349.49 1184.90 348.70 C 1189.78 347.93 1196.61 350.86 1199.62 345.57 C 1205.07 338.01 1207.46 328.80 1209.65 319.88 C 1215.46 293.06 1215.13 265.09 1209.69 238.24 C 1207.58 229.26 1204.93 220.14 1199.58 212.51 C 1198.31 211.10 1197.23 208.82 1195.04 208.96 C 1190.65 208.74 1186.25 209.01 1181.87 208.94 C 1177.30 213.06 1174.97 218.90 1172.57 224.41 M 1205.07 208.91 C 1208.85 214.88 1211.70 221.41 1213.77 228.16 C 1219.21 245.53 1220.50 263.86 1220.81 281.96 C 1220.31 304.79 1217.07 328.37 1205.60 348.49 C 1208.40 348.61 1211.21 348.73 1214.03 348.69 C 1220.83 349.04 1226.24 344.24 1231.56 340.68 C 1262.36 317.89 1271.08 271.16 1251.48 238.44 C 1243.83 225.83 1232.77 214.54 1218.68 209.42 C 1214.22 208.44 1209.59 209.11 1205.07 208.91 M 144.66 230.70 C 143.72 233.67 144.19 236.89 144.08 239.97 C 144.27 241.61 143.75 243.66 145.10 244.94 C 146.25 245.68 147.68 245.60 148.99 245.68 C 168.98 245.50 188.98 245.78 208.98 245.58 C 211.56 245.41 214.31 245.79 216.75 244.73 C 218.29 240.05 217.12 234.90 217.07 230.05 C 212.95 228.22 208.40 228.72 204.03 228.75 C 186.02 228.76 168.01 228.74 150.00 228.80 C 148.12 228.93 145.63 228.65 144.66 230.70 M 129.68 251.76 C 113.97 257.85 100.35 269.17 91.60 283.58 C 84.86 294.62 81.54 307.86 83.40 320.75 C 85.51 338.16 96.26 353.57 109.93 364.09 C 120.02 371.34 131.71 377.43 144.35 378.04 C 135.58 371.86 127.45 364.55 121.71 355.40 C 105.44 330.58 105.20 296.21 121.19 271.20 C 126.92 262.11 135.18 255.00 143.97 248.99 C 139.05 248.76 134.26 250.10 129.68 251.76 M 216.91 248.37 C 219.61 250.96 222.87 252.84 225.72 255.26 C 231.28 259.72 235.75 265.38 239.78 271.22 C 259.63 301.09 254.92 344.99 228.50 369.46 C 225.27 372.80 221.15 375.10 217.92 378.41 C 221.41 378.15 224.87 377.46 228.18 376.28 C 245.09 370.92 259.85 359.17 269.13 344.07 C 275.66 332.97 279.35 319.82 277.62 306.91 C 275.67 290.30 265.93 275.42 253.43 264.69 C 243.00 256.26 230.55 249.24 216.91 248.37 M 150.73 251.80 C 134.03 260.29 122.12 276.62 117.57 294.65 C 113.00 313.33 115.79 333.77 125.57 350.38 C 131.72 360.55 140.29 369.36 150.68 375.21 C 155.32 378.17 161.04 376.60 166.20 377.14 C 158.59 364.36 155.20 349.58 153.19 334.98 C 151.42 323.73 151.94 312.29 152.03 300.95 C 153.26 283.57 156.48 265.82 165.26 250.54 C 160.42 250.63 155.22 249.41 150.73 251.80 M 172.51 251.35 C 163.96 262.81 161.01 277.37 159.46 291.31 C 157.57 312.10 158.24 333.32 163.32 353.64 C 165.21 360.53 167.55 367.43 171.46 373.46 C 172.66 374.96 173.79 377.15 176.00 377.14 C 180.20 377.28 184.50 377.62 188.64 376.87 C 192.45 372.43 194.53 366.80 196.48 361.36 C 201.29 346.41 202.97 330.61 203.31 314.97 C 203.53 299.04 202.51 282.82 197.28 267.64 C 195.18 261.77 192.95 255.69 188.76 250.95 C 184.96 249.81 180.87 250.53 176.95 250.33 C 175.50 250.56 173.47 249.90 172.51 251.35 M 196.14 250.31 C 203.44 261.61 206.34 274.96 208.39 288.06 C 210.26 299.27 210.09 310.66 209.97 321.99 C 208.76 340.97 205.46 360.38 195.85 377.07 C 199.57 376.98 203.30 377.28 207.00 376.89 C 210.53 375.88 213.59 373.69 216.65 371.74 C 230.58 361.97 240.29 346.60 243.99 330.06 C 247.79 313.11 245.94 294.67 237.71 279.27 C 231.34 267.83 222.08 257.47 210.05 251.91 C 205.76 249.64 200.78 250.52 196.14 250.31 M 693.32 285.26 C 690.41 286.51 688.58 289.85 689.03 292.97 C 689.93 296.80 693.96 299.79 697.93 298.92 C 700.81 297.95 702.90 295.05 703.01 292.03 C 702.42 287.60 697.95 283.34 693.32 285.26 M 750.10 334.90 C 749.87 352.93 750.06 370.98 750.01 389.02 C 749.75 391.20 751.03 393.03 752.10 394.81 C 749.66 397.32 746.25 399.74 746.89 403.71 C 749.32 405.75 751.58 407.99 753.79 410.27 C 752.27 411.87 750.81 413.52 749.41 415.22 C 745.62 412.00 743.15 407.36 738.92 404.70 C 736.21 404.72 734.80 407.73 732.90 409.29 C 733.14 410.55 732.68 412.16 733.72 413.16 C 736.46 416.13 739.39 418.93 742.04 421.99 C 739.09 424.68 736.21 427.44 733.49 430.36 C 730.47 427.76 728.20 424.35 724.93 422.04 C 721.55 421.22 719.66 424.73 717.99 426.99 C 720.22 431.66 724.68 434.58 727.85 438.55 C 725.90 440.43 724.37 442.88 722.00 444.25 C 718.99 442.61 716.48 440.18 713.37 438.73 C 707.86 435.80 700.92 436.56 695.71 439.76 C 688.08 444.33 686.09 456.24 692.15 462.86 C 696.47 467.73 703.76 469.54 709.99 468.09 C 715.86 466.84 718.55 460.95 722.70 457.25 C 724.75 459.23 726.75 461.27 728.74 463.32 C 725.59 467.69 721.11 470.87 717.87 475.15 C 717.08 478.52 721.72 481.97 724.82 481.32 C 728.54 478.31 731.15 474.10 734.69 470.84 C 736.81 473.95 739.31 476.76 741.63 479.73 C 739.33 482.10 736.99 484.44 734.79 486.90 C 733.62 488.30 731.82 489.92 732.98 491.90 C 734.15 493.99 736.28 496.20 738.86 496.16 C 742.53 493.87 744.34 489.11 747.97 486.94 C 750.32 488.65 751.73 491.57 753.92 493.60 C 751.66 497.36 746.23 500.00 746.96 504.93 C 749.24 508.25 752.63 510.60 755.59 513.28 C 757.55 514.90 760.50 517.26 762.98 515.17 C 766.70 512.09 769.51 508.08 773.07 504.82 C 774.12 499.27 767.86 496.88 765.71 492.52 C 767.92 490.39 770.07 488.20 772.20 485.98 C 775.38 489.49 778.33 493.25 781.99 496.29 C 784.09 494.48 788.25 492.55 786.96 489.13 C 784.44 485.53 781.00 482.69 778.16 479.35 C 781.07 476.61 783.27 473.19 786.40 470.68 C 788.81 473.66 791.49 476.40 794.31 479.00 C 794.97 479.01 796.29 479.04 796.95 479.05 C 798.47 477.26 801.02 475.68 801.02 473.09 C 798.39 469.57 794.97 466.74 791.83 463.71 C 793.70 461.39 795.64 459.12 797.53 456.80 C 800.23 459.62 802.49 462.88 805.50 465.41 C 812.45 470.33 823.36 469.65 828.76 462.70 C 834.08 456.79 832.59 447.13 827.40 441.65 C 822.01 437.03 813.88 435.24 807.31 438.22 C 804.12 439.49 802.10 442.64 799.07 444.02 C 796.53 442.97 794.93 440.27 792.90 438.44 C 796.13 435.49 799.41 432.49 801.92 428.89 C 802.38 425.41 798.60 423.28 796.05 421.74 C 792.45 424.50 789.93 428.98 785.99 431.00 C 783.26 428.43 780.62 425.72 778.39 422.72 C 780.61 419.48 783.91 417.17 786.14 413.93 C 789.13 410.21 782.28 404.20 779.02 407.91 C 776.38 410.29 774.21 413.11 771.79 415.70 C 769.91 413.81 767.99 411.98 765.97 410.25 C 768.09 407.91 770.65 405.81 772.03 402.92 C 773.12 399.41 770.04 397.04 767.89 394.85 C 768.71 393.33 769.91 391.86 769.81 390.04 C 770.03 374.68 769.74 359.33 769.98 343.98 C 769.88 339.22 770.41 333.79 767.09 329.92 C 762.20 324.08 750.82 327.11 750.10 334.90 M 1317.32 349.31 C 1314.58 350.42 1312.39 352.81 1311.68 355.69 C 1309.94 360.92 1314.50 367.08 1320.00 367.01 C 1340.33 367.23 1360.68 366.93 1381.01 367.28 C 1387.12 367.12 1392.17 372.80 1391.90 378.77 C 1391.37 384.11 1386.42 388.59 1381.05 388.49 C 1350.38 388.45 1319.71 388.46 1289.04 388.57 C 1285.03 388.34 1280.77 390.40 1279.11 394.17 C 1276.83 400.12 1281.44 407.48 1288.01 407.15 C 1309.01 407.40 1330.02 407.14 1351.03 407.27 C 1356.59 407.12 1362.47 411.20 1363.00 416.97 C 1362.69 421.23 1359.33 425.51 1354.96 426.09 C 1349.97 426.65 1344.95 426.23 1339.96 426.33 C 1334.91 426.18 1329.09 426.39 1325.61 430.63 C 1320.92 436.01 1326.04 445.38 1332.98 445.09 C 1380.66 445.24 1428.36 445.09 1476.05 445.08 C 1482.04 445.33 1487.00 438.66 1485.01 433.00 C 1483.01 428.39 1477.74 426.20 1472.96 426.41 C 1446.32 426.38 1419.68 426.44 1393.05 426.40 C 1388.09 426.65 1383.00 422.83 1382.55 417.77 C 1382.09 412.08 1387.77 407.82 1392.97 407.31 C 1403.95 407.14 1414.94 407.47 1425.93 407.16 C 1430.61 407.40 1435.42 403.60 1435.49 398.75 C 1436.10 393.49 1431.36 388.18 1425.99 388.72 C 1420.78 388.90 1414.54 388.55 1411.63 383.47 C 1407.04 377.04 1412.45 367.60 1419.97 367.08 C 1430.63 367.00 1441.31 367.27 1451.98 367.06 C 1456.70 367.11 1461.27 362.83 1461.10 358.01 C 1461.75 352.96 1456.96 348.22 1451.95 348.74 C 1413.94 348.76 1375.93 348.78 1337.92 348.77 C 1331.06 348.99 1324.10 348.28 1317.32 349.31 M 1152.18 355.23 C 1151.56 360.13 1152.09 365.08 1152.00 369.99 C 1155.75 371.87 1160.01 371.40 1164.07 371.44 C 1182.40 371.43 1200.73 371.41 1219.06 371.39 C 1221.34 371.24 1224.03 371.47 1225.82 369.73 C 1226.32 364.85 1225.82 359.93 1226.04 355.03 C 1223.86 353.87 1221.40 353.48 1218.97 353.55 C 1198.64 353.60 1178.32 353.50 1157.99 353.56 C 1156.01 353.77 1153.46 353.35 1152.18 355.23 M 1186.36 379.18 C 1186.25 389.09 1186.36 399.01 1186.43 408.93 C 1186.59 411.64 1190.12 410.61 1191.94 410.84 C 1192.43 402.25 1191.83 393.64 1192.08 385.05 C 1191.97 382.50 1192.49 379.84 1191.73 377.38 C 1189.96 376.78 1186.35 376.55 1186.36 379.18 M 146.03 392.02 C 146.09 394.53 145.40 398.89 149.02 399.11 C 158.98 399.94 169.00 399.22 178.99 399.42 C 191.33 399.18 203.71 399.99 216.02 398.99 C 217.41 394.80 216.76 390.29 216.79 385.96 C 217.07 382.93 213.51 381.81 211.08 382.00 C 190.71 382.08 170.32 381.84 149.95 382.12 C 145.00 382.63 146.15 388.51 146.03 392.02 M 177.17 407.95 C 177.29 415.95 177.23 423.95 177.10 431.95 C 177.23 433.57 176.74 435.65 178.29 436.76 C 180.40 437.12 182.65 437.25 184.71 436.63 C 185.78 434.25 185.32 431.56 185.41 429.04 C 185.21 420.66 185.67 412.27 185.11 403.91 C 183.04 403.74 180.97 403.42 178.90 403.64 C 176.66 403.85 177.32 406.40 177.17 407.95 M 1178.86 423.03 C 1179.01 442.03 1179.07 461.04 1178.94 480.05 C 1180.33 480.58 1182.24 481.77 1183.56 480.45 C 1184.93 479.48 1184.30 477.46 1184.57 476.04 C 1184.35 462.07 1184.77 448.10 1184.30 434.14 C 1185.01 434.02 1186.43 433.78 1187.14 433.66 C 1187.39 448.46 1187.13 463.26 1187.45 478.06 C 1187.35 479.54 1188.09 481.43 1189.95 481.04 C 1192.31 481.55 1192.95 478.91 1192.80 477.11 C 1192.83 462.59 1192.67 448.07 1192.85 433.55 C 1193.52 433.75 1194.85 434.16 1195.52 434.36 C 1195.45 445.24 1195.59 456.13 1195.55 467.01 C 1195.58 471.70 1195.33 476.40 1195.93 481.06 C 1197.62 480.82 1200.67 481.48 1200.82 478.97 C 1201.28 461.64 1200.78 444.28 1201.00 426.94 C 1200.98 423.67 1201.22 419.82 1198.58 417.40 C 1195.69 414.90 1191.51 415.60 1187.99 415.56 C 1183.82 415.62 1178.41 418.10 1178.86 423.03 M 171.02 444.90 C 171.02 460.29 170.92 475.68 171.07 491.07 C 170.59 493.95 174.07 493.73 175.96 493.92 C 176.38 480.93 176.16 467.91 176.00 454.91 C 176.95 454.58 177.90 454.25 178.85 453.93 C 179.04 467.03 178.94 480.14 178.92 493.25 C 180.51 493.56 183.42 494.40 183.55 491.92 C 184.07 479.18 183.18 466.39 183.83 453.65 C 185.39 454.08 186.68 455.17 186.25 456.95 C 186.12 468.90 186.19 480.86 186.20 492.82 C 187.36 494.54 189.49 493.48 191.13 493.30 C 191.27 477.56 191.25 461.82 191.19 446.09 C 191.64 442.73 189.12 439.77 185.91 439.18 C 182.63 438.73 179.29 438.77 176.00 439.04 C 173.18 439.32 170.70 442.00 171.02 444.90 M 378.91 532.01 C 374.64 540.37 375.22 550.64 378.81 559.13 C 380.55 563.61 386.00 566.77 384.97 572.08 C 384.07 574.10 381.26 574.73 379.60 573.28 C 373.49 568.74 372.19 560.76 368.42 554.62 C 364.49 552.33 359.61 551.80 355.16 552.42 C 343.22 553.97 333.94 563.59 329.09 574.09 C 325.16 581.92 324.98 591.02 326.39 599.50 C 328.27 608.21 332.45 616.88 339.80 622.24 C 347.83 628.31 358.97 629.69 368.40 626.38 C 374.65 624.23 378.88 618.27 380.12 611.95 C 381.42 606.87 381.70 601.01 378.37 596.62 C 374.94 591.44 366.37 588.73 361.78 593.86 C 359.30 597.13 363.10 600.54 363.00 603.92 C 362.47 606.28 359.83 605.95 357.98 606.19 C 354.33 603.34 352.05 598.29 353.83 593.78 C 357.23 584.37 370.49 580.70 378.44 586.62 C 385.55 591.21 389.54 600.10 388.27 608.45 C 387.90 612.46 386.40 616.23 385.55 620.14 C 384.65 627.22 388.05 635.03 394.64 638.22 C 399.68 640.47 405.57 641.69 410.93 639.87 C 415.09 638.60 419.09 635.49 419.99 631.05 C 420.09 628.65 418.80 626.48 417.42 624.64 C 416.71 623.75 415.72 622.20 414.51 623.40 C 412.86 624.66 411.00 625.42 408.88 625.19 C 408.59 623.48 407.84 621.60 409.08 620.08 C 411.40 616.22 417.14 615.94 420.54 618.47 C 425.85 622.32 428.80 629.77 425.91 635.98 C 435.77 639.01 447.94 635.48 453.33 626.38 C 449.84 624.00 446.09 621.83 443.41 618.49 C 438.71 612.85 435.95 605.09 437.67 597.78 C 438.94 591.75 442.95 586.12 448.68 583.63 C 455.31 581.11 464.76 585.30 465.02 593.01 C 465.47 596.36 461.90 600.76 458.44 598.63 C 457.44 596.63 458.21 594.14 458.08 591.97 C 456.06 590.20 453.11 589.10 450.61 590.57 C 444.19 594.36 442.45 603.50 446.06 609.81 C 450.47 618.63 459.85 623.56 469.03 625.96 C 478.14 628.53 487.78 627.74 496.94 625.91 C 509.06 623.20 521.49 615.92 525.64 603.56 C 522.59 605.08 519.52 607.04 515.99 607.03 C 509.42 607.68 503.96 603.42 498.67 600.21 C 494.51 597.50 489.63 596.15 484.72 595.70 C 485.82 590.19 487.73 584.58 486.57 578.92 C 485.24 569.23 479.44 559.97 470.61 555.48 C 464.75 552.26 457.30 551.30 451.11 554.08 C 445.35 560.08 443.01 569.11 435.71 573.75 C 427.02 579.54 413.65 579.73 406.20 571.78 C 400.62 565.70 399.61 554.93 405.95 549.05 C 409.30 545.67 415.51 545.79 418.03 550.11 C 418.01 551.37 418.01 552.63 418.02 553.91 C 416.03 556.59 413.25 554.64 410.89 553.67 C 408.78 557.20 408.08 561.92 410.61 565.43 C 414.46 571.44 423.10 572.15 429.08 569.14 C 436.75 565.38 440.99 557.08 442.80 549.07 C 444.54 539.70 439.46 530.38 432.11 524.83 C 424.89 519.57 415.96 516.52 406.98 516.88 C 395.85 516.16 384.05 521.88 378.91 532.01 M 750.09 526.92 C 749.89 543.94 750.04 560.97 750.01 577.99 C 749.73 579.73 751.23 580.80 752.20 582.01 C 753.52 582.01 754.84 582.04 756.17 582.08 C 757.23 580.92 758.37 579.70 758.15 577.99 C 758.35 563.65 758.15 549.29 758.21 534.94 C 757.73 531.86 762.31 530.80 762.87 534.01 C 762.93 549.01 762.73 564.03 762.88 579.04 C 763.19 583.34 770.35 583.11 770.84 578.92 C 771.21 563.95 770.91 548.96 770.98 533.98 C 770.91 530.26 771.37 526.12 768.96 522.96 C 764.32 516.06 751.26 518.46 750.09 526.92 M 1330.88 594.94 C 1329.70 601.20 1330.33 607.67 1330.58 614.00 C 1331.89 615.25 1334.01 614.80 1335.69 614.70 C 1336.97 613.49 1336.42 611.58 1336.59 610.04 C 1336.39 605.05 1336.88 600.00 1335.93 595.07 C 1334.23 595.01 1332.54 594.97 1330.88 594.94 M 1309.23 618.23 C 1308.81 621.80 1309.12 625.42 1308.95 629.02 C 1310.18 629.64 1311.51 630.10 1312.96 630.00 C 1326.99 630.00 1341.01 629.99 1355.04 630.01 C 1356.80 630.09 1358.53 629.61 1360.21 629.07 C 1360.29 625.35 1360.22 621.64 1360.13 617.92 C 1358.80 617.47 1357.48 616.94 1356.08 617.01 C 1341.73 616.99 1327.37 617.00 1313.02 617.00 C 1311.68 617.11 1309.90 616.72 1309.23 618.23 M 1302.68 632.62 C 1288.43 636.90 1275.88 647.54 1270.60 661.61 C 1266.60 671.94 1268.04 683.89 1273.51 693.41 C 1280.38 706.62 1293.90 715.77 1308.56 717.91 C 1306.28 715.30 1303.14 713.67 1300.81 711.13 C 1291.60 701.54 1287.08 688.13 1286.97 674.98 C 1286.77 658.26 1294.78 641.43 1308.70 631.93 C 1306.66 632.00 1304.62 632.02 1302.68 632.62 M 1329.39 633.27 C 1323.16 641.01 1321.77 651.36 1320.32 660.90 C 1319.50 675.09 1319.34 689.65 1323.42 703.42 C 1325.05 708.24 1326.64 713.39 1330.25 717.16 C 1333.04 717.79 1335.99 717.58 1338.85 717.30 C 1342.09 714.73 1343.31 710.51 1344.76 706.80 C 1349.35 692.37 1349.93 676.97 1348.82 661.97 C 1347.68 651.77 1345.45 641.14 1338.87 632.95 C 1335.73 632.91 1332.34 632.04 1329.39 633.27 M 1360.23 631.61 C 1364.52 635.04 1368.88 638.48 1372.10 643.00 C 1385.35 660.75 1385.04 686.80 1372.95 705.05 C 1369.62 710.41 1364.57 714.20 1359.71 718.04 C 1377.55 715.54 1393.88 702.60 1399.36 685.30 C 1402.41 675.89 1400.53 665.56 1396.06 656.94 C 1388.94 643.58 1375.43 633.35 1360.23 631.61 M 809.05 635.89 C 808.97 640.50 808.78 645.14 809.13 649.75 C 809.87 650.58 810.81 650.99 811.94 650.98 C 835.99 651.07 860.05 650.89 884.11 651.07 C 884.62 650.02 885.47 649.04 885.48 647.82 C 885.60 643.24 885.77 638.61 884.96 634.08 C 883.05 633.41 881.06 632.89 879.03 633.00 C 857.31 633.06 835.58 632.89 813.85 633.08 C 812.08 633.37 808.73 633.32 809.05 635.89 M 1314.27 634.10 C 1305.64 638.65 1299.21 646.68 1295.63 655.67 C 1288.79 672.36 1291.24 693.04 1303.19 706.84 C 1308.47 712.96 1315.97 717.95 1324.38 717.48 C 1314.72 701.13 1314.14 681.46 1315.15 663.01 C 1316.28 652.54 1318.42 641.91 1323.95 632.79 C 1320.71 632.92 1317.21 632.42 1314.27 634.10 M 1344.66 632.71 C 1349.86 639.78 1351.78 648.53 1353.27 657.01 C 1354.88 667.95 1354.88 679.10 1353.54 690.07 C 1352.27 699.60 1350.13 709.26 1345.11 717.59 C 1348.35 717.46 1351.88 717.69 1354.69 715.75 C 1369.57 707.30 1377.53 689.80 1377.03 673.07 C 1376.89 657.75 1369.27 641.96 1355.58 634.38 C 1352.31 632.32 1348.31 632.90 1344.66 632.71 M 802.95 655.60 C 776.17 659.35 752.65 679.42 743.93 704.90 C 738.25 720.88 739.02 739.14 746.48 754.42 C 752.51 766.89 761.89 777.84 773.58 785.34 C 783.74 791.97 795.21 797.44 807.50 798.10 C 804.26 795.10 800.36 792.91 797.20 789.83 C 779.28 773.16 769.63 748.35 770.62 723.99 C 770.77 707.57 775.29 691.10 784.38 677.35 C 789.55 668.91 797.04 662.24 804.96 656.46 C 806.81 655.39 803.52 655.45 802.95 655.60 M 810.37 659.40 C 791.17 670.73 779.38 692.13 777.04 713.98 C 775.13 732.40 777.78 751.81 787.23 767.96 C 793.91 779.79 803.91 790.02 816.36 795.71 C 820.69 797.80 825.66 797.04 830.32 797.32 C 823.02 785.74 819.20 772.39 816.99 758.99 C 814.22 742.49 813.16 725.63 814.82 708.96 C 816.32 690.39 820.10 671.29 830.62 655.57 C 827.73 655.35 824.83 655.21 821.95 655.30 C 817.72 655.22 814.00 657.54 810.37 659.40 M 830.53 668.38 C 825.05 680.89 822.55 694.53 821.78 708.11 C 820.30 726.10 821.28 744.26 824.18 762.06 C 826.29 773.00 829.10 784.14 835.30 793.56 C 836.47 795.09 837.72 797.27 839.98 797.05 C 845.64 797.19 851.30 797.07 856.96 797.04 C 859.32 794.63 861.47 791.99 862.95 788.95 C 868.80 777.82 871.79 765.46 873.56 753.09 C 875.77 737.22 875.78 721.12 874.73 705.16 C 873.26 691.89 871.13 678.25 864.69 666.38 C 862.01 662.06 859.14 656.97 853.92 655.48 C 849.31 655.41 844.68 655.24 840.09 655.54 C 835.38 658.40 832.90 663.63 830.53 668.38 M 864.72 655.46 C 878.34 674.33 881.18 698.37 881.84 721.00 C 881.80 735.05 880.91 749.19 877.96 762.96 C 875.27 774.81 871.90 786.75 865.36 797.12 C 869.84 796.93 874.65 797.89 878.85 795.85 C 902.86 783.57 918.19 757.26 919.26 730.56 C 920.42 713.34 916.61 695.52 907.10 681.00 C 901.05 671.29 892.54 663.00 882.34 657.75 C 876.98 654.67 870.61 655.70 864.72 655.46 M 890.66 655.75 C 895.83 659.73 901.01 663.78 905.25 668.79 C 923.79 689.74 930.01 720.14 923.09 747.03 C 918.06 767.64 905.17 786.11 887.63 798.03 C 894.17 798.18 900.35 795.68 906.30 793.24 C 915.81 789.07 924.79 783.46 932.28 776.22 C 947.19 762.24 956.38 741.66 954.36 721.06 C 953.66 708.10 948.17 695.81 940.44 685.54 C 932.13 674.66 920.91 666.18 908.55 660.42 C 902.91 657.88 896.96 655.45 890.66 655.75 M 110.71 713.73 C 105.34 720.16 102.77 728.46 102.15 736.73 C 111.82 739.49 120.45 745.67 125.56 754.42 C 129.88 761.66 131.26 770.79 128.71 778.89 C 126.48 786.56 120.73 793.18 113.41 796.42 C 106.71 799.45 98.01 798.69 92.84 793.11 C 90.00 789.52 88.32 784.59 89.90 780.10 C 90.59 777.27 93.44 775.80 96.17 775.71 C 99.33 778.83 95.13 783.07 97.56 786.46 C 99.10 789.96 103.46 791.06 106.88 790.00 C 111.11 788.77 115.41 786.75 117.98 783.02 C 123.61 775.59 123.63 764.45 118.00 757.01 C 112.98 750.13 105.86 744.27 97.37 742.47 C 89.16 740.91 80.38 741.84 73.03 745.99 C 60.65 752.61 53.47 766.23 51.63 779.79 C 45.10 778.58 38.26 778.81 31.96 781.06 C 19.89 785.07 10.90 795.29 5.26 806.34 C 8.79 805.02 12.39 803.77 16.18 803.53 C 25.65 802.57 34.91 806.23 42.75 811.26 C 47.64 814.30 51.69 818.59 56.96 821.04 C 66.32 825.58 77.49 824.51 86.97 820.93 C 90.51 827.20 94.63 833.34 100.46 837.72 C 121.00 854.43 154.52 850.58 171.20 830.18 C 175.39 823.81 175.99 814.46 170.67 808.53 C 166.75 803.54 158.85 801.91 153.51 805.46 C 150.56 807.18 150.31 810.96 151.00 813.97 C 152.88 815.38 155.20 816.02 157.27 817.11 C 157.47 819.47 155.82 820.93 154.04 822.14 C 148.21 823.04 142.86 817.71 142.92 812.03 C 141.85 801.56 154.02 793.80 163.48 796.65 C 173.70 798.26 181.65 807.83 182.02 818.05 C 182.37 824.20 179.42 829.85 178.75 835.87 C 184.76 838.56 191.60 838.62 198.03 837.90 C 205.84 836.79 211.70 830.97 216.29 824.99 C 228.35 826.19 241.16 825.91 252.15 820.20 C 261.45 815.66 268.79 807.18 271.59 797.18 C 266.69 800.04 260.91 803.13 255.09 801.33 C 247.42 799.25 241.66 793.48 236.20 788.03 C 231.00 793.44 224.43 798.21 216.85 799.38 C 206.27 800.87 196.06 793.46 192.12 783.93 C 189.03 776.87 193.71 767.88 201.03 765.88 C 203.67 765.08 207.83 766.49 206.95 769.89 C 205.66 773.37 201.19 773.42 199.13 776.17 C 198.11 780.21 200.82 783.81 203.22 786.76 C 206.07 790.12 210.57 791.58 214.89 791.15 C 221.52 791.25 227.02 786.96 231.65 782.70 C 235.58 779.15 238.49 774.35 239.14 769.05 C 241.07 757.37 236.29 745.25 227.96 737.07 C 222.05 731.29 214.48 726.59 206.03 726.18 C 199.89 726.39 193.49 727.82 188.47 731.52 C 187.31 736.86 187.19 742.62 184.51 747.59 C 181.41 754.03 176.37 759.99 169.49 762.48 C 158.62 767.04 144.55 756.06 147.32 744.31 C 148.65 738.11 159.04 734.95 161.66 741.81 C 161.44 742.32 160.99 743.35 160.77 743.86 C 158.50 744.74 156.18 745.49 153.84 746.16 C 153.61 751.71 159.33 756.91 164.87 755.69 C 169.24 754.91 172.56 751.63 175.36 748.41 C 178.86 744.47 179.58 739.01 179.94 733.95 C 180.04 717.41 166.97 702.56 151.03 699.15 C 136.30 695.97 120.00 701.83 110.71 713.73 M 1311.19 721.44 C 1309.55 724.28 1310.40 727.82 1310.38 730.96 C 1310.23 733.92 1313.90 733.75 1315.95 733.85 C 1328.32 733.82 1340.71 734.06 1353.08 733.84 C 1354.43 733.62 1356.54 733.55 1357.00 731.97 C 1357.44 728.71 1357.43 725.38 1357.02 722.13 C 1356.08 720.75 1354.37 721.02 1352.97 720.98 C 1344.30 721.01 1335.63 720.99 1326.97 721.00 C 1321.72 721.27 1316.31 720.41 1311.19 721.44 M 1332.48 737.29 C 1332.21 743.52 1332.55 749.77 1332.33 756.01 C 1332.42 757.61 1331.95 759.54 1333.17 760.87 C 1334.50 761.24 1335.81 760.72 1337.07 760.28 C 1336.88 752.17 1337.11 744.07 1336.93 735.97 C 1335.48 736.35 1332.94 735.32 1332.48 737.29 M 1330.28 764.34 C 1328.57 765.20 1327.80 767.16 1327.94 768.99 C 1327.87 777.66 1327.83 786.34 1328.00 795.01 C 1327.76 798.30 1331.75 798.11 1334.01 798.03 C 1336.57 797.92 1340.70 798.81 1341.30 795.28 C 1342.03 788.89 1341.34 782.43 1341.54 776.02 C 1341.37 772.80 1342.04 769.39 1340.81 766.33 C 1338.57 762.82 1333.71 763.87 1330.28 764.34 M 987.44 769.51 C 983.68 770.26 980.21 773.18 979.54 777.07 C 978.12 782.69 983.49 788.47 989.12 788.22 C 999.42 788.33 1009.75 787.94 1020.05 788.29 C 1026.89 788.41 1032.04 795.56 1030.73 802.10 C 1029.96 807.09 1025.17 811.26 1020.07 811.01 C 994.71 810.98 969.35 811.01 944.00 811.00 C 938.95 810.43 933.74 814.83 933.92 820.00 C 933.41 824.33 936.87 828.41 941.03 829.23 C 944.28 829.94 947.65 829.65 950.96 829.70 C 980.65 829.59 1010.34 829.68 1040.03 829.62 C 1045.37 829.23 1051.58 833.11 1051.27 838.98 C 1051.71 844.16 1046.98 848.39 1042.05 848.66 C 1030.70 848.92 1019.34 848.42 1008.00 848.87 C 1001.68 849.21 996.06 857.01 1000.30 862.64 C 1003.66 867.98 1010.54 867.46 1016.02 867.28 C 1066.33 867.24 1116.63 867.33 1166.94 867.24 C 1171.49 867.65 1175.97 864.49 1177.29 860.18 C 1178.89 854.59 1173.72 848.46 1167.98 848.93 C 1142.35 848.51 1116.70 848.78 1091.06 848.75 C 1085.65 848.59 1079.38 849.82 1074.93 845.92 C 1071.98 843.67 1071.27 839.61 1072.31 836.22 C 1074.00 832.00 1078.54 829.46 1083.00 829.62 C 1093.68 829.63 1104.36 829.74 1115.05 829.64 C 1118.60 829.74 1122.25 828.16 1124.02 824.95 C 1127.26 819.54 1123.51 811.52 1117.07 811.08 C 1097.36 810.89 1077.63 811.05 1057.92 811.00 C 1054.85 811.11 1051.86 809.49 1050.05 807.06 C 1045.41 801.08 1048.02 790.52 1055.69 788.56 C 1062.05 787.60 1068.55 788.62 1074.95 787.91 C 1080.68 786.37 1084.13 778.61 1080.27 773.71 C 1077.64 769.05 1071.61 769.38 1067.01 769.24 C 1040.49 769.41 1013.94 768.85 987.44 769.51 M 812.21 802.25 C 811.04 802.66 810.14 803.71 810.26 805.00 C 810.08 808.98 809.97 813.01 810.36 816.99 C 811.25 819.54 814.61 819.66 816.90 819.93 C 836.57 820.10 856.25 819.94 875.93 820.01 C 878.88 819.98 882.05 820.10 884.70 818.57 C 886.12 814.26 885.42 809.51 885.36 805.04 C 885.48 803.21 883.71 801.92 882.02 802.04 C 867.01 801.78 851.99 802.08 836.98 801.96 C 828.73 802.15 820.42 801.45 812.21 802.25 M 845.10 825.96 C 845.06 833.29 845.04 840.63 845.00 847.97 C 845.11 849.47 844.78 851.15 845.53 852.55 C 847.13 853.46 849.16 852.80 850.95 852.97 C 850.98 843.96 851.13 834.94 850.86 825.93 C 848.93 825.82 847.01 825.82 845.10 825.96 M 841.64 857.37 C 837.23 859.49 838.28 865.06 838.15 869.05 C 838.69 882.04 837.63 895.11 838.93 908.06 C 840.27 908.10 841.63 908.15 843.00 908.21 C 843.06 896.73 842.88 885.26 843.09 873.79 C 843.55 873.68 844.47 873.46 844.93 873.36 L 845.59 874.14 C 846.26 885.45 845.43 896.83 845.91 908.17 C 847.26 908.12 848.63 908.09 850.00 908.07 C 849.99 896.64 850.02 885.22 849.99 873.79 C 850.69 873.87 852.09 874.02 852.80 874.10 C 852.73 885.46 852.65 896.82 852.79 908.18 C 854.15 908.09 855.53 908.01 856.92 907.94 C 857.08 892.93 856.98 877.91 856.98 862.90 C 857.28 859.77 854.52 857.01 851.50 856.84 C 848.23 856.61 844.76 856.21 841.64 857.37 M 373.29 928.46 C 369.78 929.78 366.29 932.87 366.61 936.96 C 366.20 941.69 370.32 946.19 375.05 946.27 C 385.61 946.86 396.21 946.16 406.78 946.63 C 412.14 946.79 417.45 951.36 417.06 956.99 C 417.16 963.61 410.29 968.28 404.08 967.83 C 374.73 967.89 345.37 967.78 316.02 967.87 C 311.49 967.38 307.12 970.66 306.10 975.05 C 304.86 981.36 310.62 987.44 316.95 986.97 C 369.28 986.98 421.62 987.03 473.96 986.96 C 477.44 987.20 480.99 985.95 483.08 983.05 C 487.58 978.17 484.70 969.13 478.11 968.00 C 467.39 967.51 456.63 968.26 445.90 967.67 C 440.67 967.38 435.85 963.19 435.18 957.93 C 434.71 952.34 439.40 946.68 445.12 946.60 C 455.39 946.26 465.67 946.56 475.94 946.46 C 480.13 946.34 484.42 943.41 484.94 939.03 C 486.26 933.21 480.60 927.72 474.97 927.83 C 446.00 927.65 417.02 927.77 388.05 927.66 C 383.14 927.93 378.09 927.20 373.29 928.46 Z" />
<path fill="#a81e1e" opacity="1.00" d=" M 757.97 339.98 C 758.84 339.24 759.71 338.50 760.60 337.78 C 761.39 339.06 762.23 340.39 762.03 341.98 C 762.01 357.01 761.98 372.03 762.01 387.06 C 760.67 386.77 759.33 386.49 758.00 386.23 C 757.98 370.81 758.04 355.40 757.97 339.98 Z" />
<path fill="#a81e1e" opacity="1.00" d=" M 756.92 401.13 C 757.75 400.35 758.59 399.06 759.84 399.06 C 760.84 399.84 761.75 400.76 762.67 401.66 C 761.66 402.63 760.66 403.61 759.67 404.60 C 758.81 403.46 756.86 402.68 756.92 401.13 Z" />
<path fill="#a81e1e" opacity="1.00" d=" M 754.81 422.69 C 756.52 420.53 758.36 418.45 760.48 416.68 C 762.24 418.82 764.25 420.77 765.90 423.01 C 764.96 425.36 762.69 427.09 761.17 429.14 C 759.15 426.89 757.04 424.73 754.81 422.69 Z" />
<path fill="#a81e1e" opacity="1.00" d=" M 740.13 437.61 C 742.95 434.73 745.58 431.67 748.42 428.81 C 750.53 431.28 752.70 433.70 754.90 436.10 C 752.18 438.74 749.94 441.85 747.02 444.27 C 744.59 442.18 742.49 439.76 740.13 437.61 Z" />
<path fill="#a81e1e" opacity="1.00" d=" M 771.46 431.09 C 771.74 431.08 772.30 431.06 772.59 431.05 C 774.97 433.47 777.38 435.99 779.13 438.92 C 777.68 440.99 775.85 442.78 773.87 444.33 C 771.31 442.15 769.07 439.61 766.96 437.01 C 768.04 434.77 769.76 432.88 771.46 431.09 Z" />
<path fill="#a81e1e" opacity="1.00" d=" M 760.39 443.18 C 762.86 445.91 765.30 448.67 767.94 451.24 C 765.48 453.87 763.06 456.54 760.53 459.12 C 758.15 456.46 755.63 453.94 753.16 451.37 C 755.59 448.66 758.02 445.95 760.39 443.18 Z" />
<path fill="#a81e1e" opacity="1.00" d=" M 728.94 450.94 C 730.25 448.70 732.15 446.84 734.01 445.04 C 736.67 446.26 738.33 449.27 740.50 451.28 C 738.66 453.49 736.63 455.54 734.45 457.41 C 732.60 455.26 730.60 453.23 728.94 450.94 Z" />
<path fill="#a81e1e" opacity="1.00" d=" M 786.34 445.12 C 788.02 447.00 789.78 448.80 791.64 450.52 C 789.49 452.92 787.37 455.33 785.31 457.79 C 783.58 455.84 781.12 454.28 780.01 451.95 C 781.51 449.31 784.36 447.48 786.34 445.12 Z" />
<path fill="#a81e1e" opacity="1.00" d=" M 698.64 457.31 C 694.84 452.76 699.31 445.07 705.02 445.40 C 709.69 445.43 713.22 448.81 716.68 451.49 C 713.82 454.36 711.41 457.88 707.77 459.83 C 704.55 460.52 700.68 460.24 698.64 457.31 Z" />
<path fill="#a81e1e" opacity="1.00" d=" M 804.68 450.34 C 807.73 448.01 810.95 445.26 815.01 445.21 C 819.17 445.57 823.09 448.78 823.71 453.00 C 823.67 457.00 819.95 460.44 815.95 460.08 C 810.45 460.01 806.83 454.83 804.68 450.34 Z" />
<path fill="#a81e1e" opacity="1.00" d=" M 740.10 464.78 C 742.44 462.50 744.47 459.91 747.02 457.85 C 749.34 460.24 751.51 462.80 753.62 465.40 C 751.82 467.89 749.46 469.92 747.55 472.32 C 744.90 469.97 742.61 467.27 740.10 464.78 Z" />
<path fill="#a81e1e" opacity="1.00" d=" M 766.55 465.79 C 768.85 463.17 771.18 460.57 773.53 457.98 C 775.72 460.23 777.86 462.53 779.88 464.94 C 777.42 467.24 775.06 469.65 772.80 472.14 C 770.79 469.94 768.71 467.82 766.55 465.79 Z" />
<path fill="#a81e1e" opacity="1.00" d=" M 760.24 472.18 C 762.08 474.50 764.63 476.39 766.01 479.01 C 764.61 481.80 761.49 483.62 759.59 486.20 C 757.47 484.17 755.48 482.03 753.57 479.82 C 755.66 477.16 757.91 474.64 760.24 472.18 Z" />
<path fill="#a81e1e" opacity="1.00" d=" M 756.97 502.87 C 758.05 501.64 759.15 500.43 760.26 499.22 C 761.41 500.59 762.56 501.96 763.72 503.34 C 762.82 504.27 761.94 505.22 761.07 506.17 C 759.69 505.07 758.32 503.96 756.97 502.87 Z" />
</g>
<g id="#e69c4eff">
<path fill="#e69c4e" opacity="1.00" d=" M 1185.05 152.10 C 1185.72 148.54 1190.28 149.52 1192.87 149.98 C 1194.25 155.21 1193.55 160.66 1193.71 166.01 C 1193.59 172.01 1193.98 178.04 1193.52 184.03 C 1193.38 185.61 1191.07 184.93 1190.04 185.16 C 1188.36 185.15 1186.70 185.03 1185.06 184.93 C 1184.85 173.99 1184.85 163.04 1185.05 152.10 Z" />
<path fill="#e69c4e" opacity="1.00" d=" M 609.89 164.36 C 619.48 163.00 629.71 163.92 638.26 168.77 C 651.40 175.27 661.38 188.99 661.20 203.94 C 656.85 206.70 651.94 208.62 648.12 212.17 C 641.29 218.50 637.05 227.72 637.19 237.07 C 638.01 245.09 639.92 254.06 646.66 259.25 C 651.42 262.57 656.94 265.59 662.93 265.21 C 671.75 265.24 679.76 255.37 676.31 246.81 C 674.87 242.57 669.46 239.48 665.73 243.04 C 665.68 245.96 668.02 247.73 670.09 249.37 C 670.42 252.50 668.66 255.60 665.78 256.87 C 661.15 257.99 656.33 256.26 652.43 253.83 C 647.46 250.71 645.76 244.57 645.08 239.09 C 643.93 230.32 648.27 221.49 655.14 216.17 C 660.30 212.20 666.64 209.91 673.08 209.19 C 682.99 208.83 692.81 213.23 699.43 220.58 C 707.46 228.61 712.81 239.14 722.00 246.03 C 728.70 250.99 737.79 253.36 745.87 250.68 C 749.91 249.44 753.38 246.89 756.41 244.01 C 754.97 255.46 750.26 266.79 741.97 274.98 C 734.30 282.92 723.20 287.88 712.06 287.00 C 708.80 283.13 705.22 278.84 699.98 277.84 C 695.02 276.31 689.53 278.37 686.20 282.19 C 682.60 285.91 681.28 291.10 678.25 295.22 C 669.57 307.35 654.97 314.85 640.06 315.00 C 626.94 315.00 613.36 311.39 603.20 302.80 C 597.89 298.44 594.68 291.86 594.01 285.08 C 593.48 277.74 599.25 271.20 605.95 269.05 C 610.15 267.97 614.14 271.27 615.33 275.12 C 617.31 279.05 611.16 281.66 612.41 285.51 C 613.88 288.93 618.56 287.70 620.20 285.09 C 625.19 279.78 623.87 270.97 618.77 266.22 C 614.48 261.41 607.23 260.09 601.33 262.44 C 594.09 265.54 588.32 272.23 587.02 280.07 C 586.35 285.22 587.21 290.42 588.86 295.30 C 583.95 295.38 578.79 295.09 574.54 292.37 C 570.30 290.09 567.97 285.64 566.66 281.19 C 557.78 279.63 548.32 278.43 540.92 272.81 C 531.68 266.17 526.85 255.07 525.33 244.08 C 523.00 229.16 533.82 214.12 548.10 210.13 C 557.37 206.81 568.36 211.64 572.84 220.27 C 577.53 228.55 574.54 240.43 566.37 245.37 C 563.82 246.94 560.90 245.61 558.83 243.93 C 559.07 241.23 560.27 238.17 558.08 235.92 C 557.25 235.93 555.61 235.94 554.78 235.95 C 549.74 240.48 551.98 249.65 558.27 251.74 C 562.74 253.91 568.15 253.11 572.05 250.14 C 579.01 244.93 582.17 236.18 583.10 227.80 C 587.19 229.52 591.39 231.49 595.96 231.25 C 604.97 230.97 613.63 224.69 616.25 215.98 C 618.66 208.61 614.07 199.95 606.91 197.28 C 603.81 196.13 599.63 197.24 599.11 200.93 C 599.40 203.28 601.96 203.58 603.74 204.31 C 607.62 205.57 610.28 209.88 609.03 213.92 C 606.40 222.89 593.71 226.63 586.68 220.34 C 577.06 211.76 575.40 196.45 581.19 185.26 C 586.79 174.32 597.92 166.66 609.89 164.36 Z" />
<path fill="#e69c4e" opacity="1.00" d=" M 1152.07 190.08 C 1153.53 187.75 1156.61 188.19 1158.98 188.09 C 1180.60 188.28 1202.26 187.87 1223.87 188.33 C 1228.53 189.15 1226.65 194.75 1227.02 198.05 C 1226.63 200.34 1228.22 204.58 1224.89 205.03 C 1210.26 205.41 1195.61 205.13 1180.98 205.24 C 1171.32 205.08 1161.65 205.52 1152.00 204.92 C 1151.45 200.00 1151.42 194.99 1152.07 190.08 Z" />
<path fill="#e69c4e" opacity="1.00" d=" M 178.14 193.05 C 180.77 191.62 186.12 191.95 185.92 195.92 C 186.11 204.28 185.94 212.64 186.01 221.01 C 185.91 222.60 186.19 224.31 185.53 225.82 C 182.94 226.71 179.83 226.84 177.27 225.85 C 176.81 215.33 176.90 204.72 177.23 194.20 C 177.46 193.91 177.91 193.34 178.14 193.05 Z" />
<path fill="#e69c4e" opacity="1.00" d=" M 1104.73 227.74 C 1116.81 217.19 1131.90 209.11 1148.13 208.04 C 1139.15 214.25 1130.57 221.35 1124.37 230.44 C 1106.29 256.07 1105.65 291.68 1119.70 319.26 C 1125.64 330.09 1133.87 339.79 1144.09 346.80 C 1145.94 348.00 1147.90 349.12 1149.39 350.79 C 1123.09 347.13 1098.38 330.45 1086.71 306.36 C 1081.78 296.34 1079.77 285.07 1080.28 273.96 C 1081.67 256.01 1091.49 239.57 1104.73 227.74 Z" />
<path fill="#e69c4e" opacity="1.00" d=" M 1229.31 207.98 C 1239.75 208.09 1249.55 212.49 1258.41 217.64 C 1274.01 226.68 1286.55 240.93 1293.28 257.67 C 1297.70 268.29 1299.24 280.30 1296.50 291.55 C 1291.01 314.73 1273.40 334.00 1252.05 343.94 C 1244.63 347.14 1236.88 350.17 1228.70 350.34 C 1234.62 345.78 1240.77 341.41 1245.80 335.82 C 1270.77 309.01 1275.15 265.32 1255.82 234.17 C 1249.21 223.47 1239.70 214.92 1229.31 207.98 Z" />
<path fill="#e69c4e" opacity="1.00" d=" M 1145.40 216.51 C 1149.77 213.27 1154.61 210.42 1159.94 209.13 C 1164.37 208.73 1168.84 209.09 1173.29 208.98 C 1161.15 229.66 1157.76 254.29 1157.96 277.93 C 1157.76 290.68 1158.74 303.47 1161.12 316.01 C 1163.40 327.44 1166.78 338.83 1172.94 348.83 C 1167.44 348.45 1161.67 349.44 1156.41 347.48 C 1133.80 336.11 1118.59 312.16 1116.28 287.14 C 1115.27 274.87 1116.00 262.20 1120.53 250.64 C 1125.36 237.18 1134.20 225.33 1145.40 216.51 Z" />
<path fill="#e69c4e" opacity="1.00" d=" M 1172.57 224.41 C 1174.97 218.90 1177.30 213.06 1181.87 208.94 C 1186.25 209.01 1190.65 208.74 1195.04 208.96 C 1197.23 208.82 1198.31 211.10 1199.58 212.51 C 1204.93 220.14 1207.58 229.26 1209.69 238.24 C 1215.13 265.09 1215.46 293.06 1209.65 319.88 C 1207.46 328.80 1205.07 338.01 1199.62 345.57 C 1196.61 350.86 1189.78 347.93 1184.90 348.70 C 1181.03 349.49 1178.80 345.81 1177.07 343.01 C 1169.45 330.00 1167.23 314.79 1165.46 300.05 C 1164.56 289.73 1163.75 279.33 1164.58 268.98 C 1165.50 253.90 1167.08 238.60 1172.57 224.41 Z" />
<path fill="#e69c4e" opacity="1.00" d=" M 1205.07 208.91 C 1209.59 209.11 1214.22 208.44 1218.68 209.42 C 1232.77 214.54 1243.83 225.83 1251.48 238.44 C 1271.08 271.16 1262.36 317.89 1231.56 340.68 C 1226.24 344.24 1220.83 349.04 1214.03 348.69 C 1211.21 348.73 1208.40 348.61 1205.60 348.49 C 1217.07 328.37 1220.31 304.79 1220.81 281.96 C 1220.50 263.86 1219.21 245.53 1213.77 228.16 C 1211.70 221.41 1208.85 214.88 1205.07 208.91 Z" />
<path fill="#e69c4e" opacity="1.00" d=" M 144.66 230.70 C 145.63 228.65 148.12 228.93 150.00 228.80 C 168.01 228.74 186.02 228.76 204.03 228.75 C 208.40 228.72 212.95 228.22 217.07 230.05 C 217.12 234.90 218.29 240.05 216.75 244.73 C 214.31 245.79 211.56 245.41 208.98 245.58 C 188.98 245.78 168.98 245.50 148.99 245.68 C 147.68 245.60 146.25 245.68 145.10 244.94 C 143.75 243.66 144.27 241.61 144.08 239.97 C 144.19 236.89 143.72 233.67 144.66 230.70 Z" />
<path fill="#e69c4e" opacity="1.00" d=" M 129.68 251.76 C 134.26 250.10 139.05 248.76 143.97 248.99 C 135.18 255.00 126.92 262.11 121.19 271.20 C 105.20 296.21 105.44 330.58 121.71 355.40 C 127.45 364.55 135.58 371.86 144.35 378.04 C 131.71 377.43 120.02 371.34 109.93 364.09 C 96.26 353.57 85.51 338.16 83.40 320.75 C 81.54 307.86 84.86 294.62 91.60 283.58 C 100.35 269.17 113.97 257.85 129.68 251.76 Z" />
<path fill="#e69c4e" opacity="1.00" d=" M 216.91 248.37 C 230.55 249.24 243.00 256.26 253.43 264.69 C 265.93 275.42 275.67 290.30 277.62 306.91 C 279.35 319.82 275.66 332.97 269.13 344.07 C 259.85 359.17 245.09 370.92 228.18 376.28 C 224.87 377.46 221.41 378.15 217.92 378.41 C 221.15 375.10 225.27 372.80 228.50 369.46 C 254.92 344.99 259.63 301.09 239.78 271.22 C 235.75 265.38 231.28 259.72 225.72 255.26 C 222.87 252.84 219.61 250.96 216.91 248.37 Z" />
<path fill="#e69c4e" opacity="1.00" d=" M 150.73 251.80 C 155.22 249.41 160.42 250.63 165.26 250.54 C 156.48 265.82 153.26 283.57 152.03 300.95 C 151.94 312.29 151.42 323.73 153.19 334.98 C 155.20 349.58 158.59 364.36 166.20 377.14 C 161.04 376.60 155.32 378.17 150.68 375.21 C 140.29 369.36 131.72 360.55 125.57 350.38 C 115.79 333.77 113.00 313.33 117.57 294.65 C 122.12 276.62 134.03 260.29 150.73 251.80 Z" />
<path fill="#e69c4e" opacity="1.00" d=" M 172.51 251.35 C 173.47 249.90 175.50 250.56 176.95 250.33 C 180.87 250.53 184.96 249.81 188.76 250.95 C 192.95 255.69 195.18 261.77 197.28 267.64 C 202.51 282.82 203.53 299.04 203.31 314.97 C 202.97 330.61 201.29 346.41 196.48 361.36 C 194.53 366.80 192.45 372.43 188.64 376.87 C 184.50 377.62 180.20 377.28 176.00 377.14 C 173.79 377.15 172.66 374.96 171.46 373.46 C 167.55 367.43 165.21 360.53 163.32 353.64 C 158.24 333.32 157.57 312.10 159.46 291.31 C 161.01 277.37 163.96 262.81 172.51 251.35 Z" />
<path fill="#e69c4e" opacity="1.00" d=" M 196.14 250.31 C 200.78 250.52 205.76 249.64 210.05 251.91 C 222.08 257.47 231.34 267.83 237.71 279.27 C 245.94 294.67 247.79 313.11 243.99 330.06 C 240.29 346.60 230.58 361.97 216.65 371.74 C 213.59 373.69 210.53 375.88 207.00 376.89 C 203.30 377.28 199.57 376.98 195.85 377.07 C 205.46 360.38 208.76 340.97 209.97 321.99 C 210.09 310.66 210.26 299.27 208.39 288.06 C 206.34 274.96 203.44 261.61 196.14 250.31 Z" />
<path fill="#e69c4e" opacity="1.00" d=" M 693.32 285.26 C 697.95 283.34 702.42 287.60 703.01 292.03 C 702.90 295.05 700.81 297.95 697.93 298.92 C 693.96 299.79 689.93 296.80 689.03 292.97 C 688.58 289.85 690.41 286.51 693.32 285.26 Z" />
<path fill="#e69c4e" opacity="1.00" d=" M 750.10 334.90 C 750.82 327.11 762.20 324.08 767.09 329.92 C 770.41 333.79 769.88 339.22 769.98 343.98 C 769.74 359.33 770.03 374.68 769.81 390.04 C 769.91 391.86 768.71 393.33 767.89 394.85 C 770.04 397.04 773.12 399.41 772.03 402.92 C 770.65 405.81 768.09 407.91 765.97 410.25 C 767.99 411.98 769.91 413.81 771.79 415.70 C 774.21 413.11 776.38 410.29 779.02 407.91 C 782.28 404.20 789.13 410.21 786.14 413.93 C 783.91 417.17 780.61 419.48 778.39 422.72 C 780.62 425.72 783.26 428.43 785.99 431.00 C 789.93 428.98 792.45 424.50 796.05 421.74 C 798.60 423.28 802.38 425.41 801.92 428.89 C 799.41 432.49 796.13 435.49 792.90 438.44 C 794.93 440.27 796.53 442.97 799.07 444.02 C 802.10 442.64 804.12 439.49 807.31 438.22 C 813.88 435.24 822.01 437.03 827.40 441.65 C 832.59 447.13 834.08 456.79 828.76 462.70 C 823.36 469.65 812.45 470.33 805.50 465.41 C 802.49 462.88 800.23 459.62 797.53 456.80 C 795.64 459.12 793.70 461.39 791.83 463.71 C 794.97 466.74 798.39 469.57 801.02 473.09 C 801.02 475.68 798.47 477.26 796.95 479.05 C 796.29 479.04 794.97 479.01 794.31 479.00 C 791.49 476.40 788.81 473.66 786.40 470.68 C 783.27 473.19 781.07 476.61 778.16 479.35 C 781.00 482.69 784.44 485.53 786.96 489.13 C 788.25 492.55 784.09 494.48 781.99 496.29 C 778.33 493.25 775.38 489.49 772.20 485.98 C 770.07 488.20 767.92 490.39 765.71 492.52 C 767.86 496.88 774.12 499.27 773.07 504.82 C 769.51 508.08 766.70 512.09 762.98 515.17 C 760.50 517.26 757.55 514.90 755.59 513.28 C 752.63 510.60 749.24 508.25 746.96 504.93 C 746.23 500.00 751.66 497.36 753.92 493.60 C 751.73 491.57 750.32 488.65 747.97 486.94 C 744.34 489.11 742.53 493.87 738.86 496.16 C 736.28 496.20 734.15 493.99 732.98 491.90 C 731.82 489.92 733.62 488.30 734.79 486.90 C 736.99 484.44 739.33 482.10 741.63 479.73 C 739.31 476.76 736.81 473.95 734.69 470.84 C 731.15 474.10 728.54 478.31 724.82 481.32 C 721.72 481.97 717.08 478.52 717.87 475.15 C 721.11 470.87 725.59 467.69 728.74 463.32 C 726.75 461.27 724.75 459.23 722.70 457.25 C 718.55 460.95 715.86 466.84 709.99 468.09 C 703.76 469.54 696.47 467.73 692.15 462.86 C 686.09 456.24 688.08 444.33 695.71 439.76 C 700.92 436.56 707.86 435.80 713.37 438.73 C 716.48 440.18 718.99 442.61 722.00 444.25 C 724.37 442.88 725.90 440.43 727.85 438.55 C 724.68 434.58 720.22 431.66 717.99 426.99 C 719.66 424.73 721.55 421.22 724.93 422.04 C 728.20 424.35 730.47 427.76 733.49 430.36 C 736.21 427.44 739.09 424.68 742.04 421.99 C 739.39 418.93 736.46 416.13 733.72 413.16 C 732.68 412.16 733.14 410.55 732.90 409.29 C 734.80 407.73 736.21 404.72 738.92 404.70 C 743.15 407.36 745.62 412.00 749.41 415.22 C 750.81 413.52 752.27 411.87 753.79 410.27 C 751.58 407.99 749.32 405.75 746.89 403.71 C 746.25 399.74 749.66 397.32 752.10 394.81 C 751.03 393.03 749.75 391.20 750.01 389.02 C 750.06 370.98 749.87 352.93 750.10 334.90 M 757.97 339.98 C 758.04 355.40 757.98 370.81 758.00 386.23 C 759.33 386.49 760.67 386.77 762.01 387.06 C 761.98 372.03 762.01 357.01 762.03 341.98 C 762.23 340.39 761.39 339.06 760.60 337.78 C 759.71 338.50 758.84 339.24 757.97 339.98 M 756.92 401.13 C 756.86 402.68 758.81 403.46 759.67 404.60 C 760.66 403.61 761.66 402.63 762.67 401.66 C 761.75 400.76 760.84 399.84 759.84 399.06 C 758.59 399.06 757.75 400.35 756.92 401.13 M 754.81 422.69 C 757.04 424.73 759.15 426.89 761.17 429.14 C 762.69 427.09 764.96 425.36 765.90 423.01 C 764.25 420.77 762.24 418.82 760.48 416.68 C 758.36 418.45 756.52 420.53 754.81 422.69 M 740.13 437.61 C 742.49 439.76 744.59 442.18 747.02 444.27 C 749.94 441.85 752.18 438.74 754.90 436.10 C 752.70 433.70 750.53 431.28 748.42 428.81 C 745.58 431.67 742.95 434.73 740.13 437.61 M 771.46 431.09 C 769.76 432.88 768.04 434.77 766.96 437.01 C 769.07 439.61 771.31 442.15 773.87 444.33 C 775.85 442.78 777.68 440.99 779.13 438.92 C 777.38 435.99 774.97 433.47 772.59 431.05 C 772.30 431.06 771.74 431.08 771.46 431.09 M 760.39 443.18 C 758.02 445.95 755.59 448.66 753.16 451.37 C 755.63 453.94 758.15 456.46 760.53 459.12 C 763.06 456.54 765.48 453.87 767.94 451.24 C 765.30 448.67 762.86 445.91 760.39 443.18 M 728.94 450.94 C 730.60 453.23 732.60 455.26 734.45 457.41 C 736.63 455.54 738.66 453.49 740.50 451.28 C 738.33 449.27 736.67 446.26 734.01 445.04 C 732.15 446.84 730.25 448.70 728.94 450.94 M 786.34 445.12 C 784.36 447.48 781.51 449.31 780.01 451.95 C 781.12 454.28 783.58 455.84 785.31 457.79 C 787.37 455.33 789.49 452.92 791.64 450.52 C 789.78 448.80 788.02 447.00 786.34 445.12 M 698.64 457.31 C 700.68 460.24 704.55 460.52 707.77 459.83 C 711.41 457.88 713.82 454.36 716.68 451.49 C 713.22 448.81 709.69 445.43 705.02 445.40 C 699.31 445.07 694.84 452.76 698.64 457.31 M 804.68 450.34 C 806.83 454.83 810.45 460.01 815.95 460.08 C 819.95 460.44 823.67 457.00 823.71 453.00 C 823.09 448.78 819.17 445.57 815.01 445.21 C 810.95 445.26 807.73 448.01 804.68 450.34 M 740.10 464.78 C 742.61 467.27 744.90 469.97 747.55 472.32 C 749.46 469.92 751.82 467.89 753.62 465.40 C 751.51 462.80 749.34 460.24 747.02 457.85 C 744.47 459.91 742.44 462.50 740.10 464.78 M 766.55 465.79 C 768.71 467.82 770.79 469.94 772.80 472.14 C 775.06 469.65 777.42 467.24 779.88 464.94 C 777.86 462.53 775.72 460.23 773.53 457.98 C 771.18 460.57 768.85 463.17 766.55 465.79 M 760.24 472.18 C 757.91 474.64 755.66 477.16 753.57 479.82 C 755.48 482.03 757.47 484.17 759.59 486.20 C 761.49 483.62 764.61 481.80 766.01 479.01 C 764.63 476.39 762.08 474.50 760.24 472.18 M 756.97 502.87 C 758.32 503.96 759.69 505.07 761.07 506.17 C 761.94 505.22 762.82 504.27 763.72 503.34 C 762.56 501.96 761.41 500.59 760.26 499.22 C 759.15 500.43 758.05 501.64 756.97 502.87 Z" />
<path fill="#e69c4e" opacity="1.00" d=" M 1317.32 349.31 C 1324.10 348.28 1331.06 348.99 1337.92 348.77 C 1375.93 348.78 1413.94 348.76 1451.95 348.74 C 1456.96 348.22 1461.75 352.96 1461.10 358.01 C 1461.27 362.83 1456.70 367.11 1451.98 367.06 C 1441.31 367.27 1430.63 367.00 1419.97 367.08 C 1412.45 367.60 1407.04 377.04 1411.63 383.47 C 1414.54 388.55 1420.78 388.90 1425.99 388.72 C 1431.36 388.18 1436.10 393.49 1435.49 398.75 C 1435.42 403.60 1430.61 407.40 1425.93 407.16 C 1414.94 407.47 1403.95 407.14 1392.97 407.31 C 1387.77 407.82 1382.09 412.08 1382.55 417.77 C 1383.00 422.83 1388.09 426.65 1393.05 426.40 C 1419.68 426.44 1446.32 426.38 1472.96 426.41 C 1477.74 426.20 1483.01 428.39 1485.01 433.00 C 1487.00 438.66 1482.04 445.33 1476.05 445.08 C 1428.36 445.09 1380.66 445.24 1332.98 445.09 C 1326.04 445.38 1320.92 436.01 1325.61 430.63 C 1329.09 426.39 1334.91 426.18 1339.96 426.33 C 1344.95 426.23 1349.97 426.65 1354.96 426.09 C 1359.33 425.51 1362.69 421.23 1363.00 416.97 C 1362.47 411.20 1356.59 407.12 1351.03 407.27 C 1330.02 407.14 1309.01 407.40 1288.01 407.15 C 1281.44 407.48 1276.83 400.12 1279.11 394.17 C 1280.77 390.40 1285.03 388.34 1289.04 388.57 C 1319.71 388.46 1350.38 388.45 1381.05 388.49 C 1386.42 388.59 1391.37 384.11 1391.90 378.77 C 1392.17 372.80 1387.12 367.12 1381.01 367.28 C 1360.68 366.93 1340.33 367.23 1320.00 367.01 C 1314.50 367.08 1309.94 360.92 1311.68 355.69 C 1312.39 352.81 1314.58 350.42 1317.32 349.31 Z" />
<path fill="#e69c4e" opacity="1.00" d=" M 1152.18 355.23 C 1153.46 353.35 1156.01 353.77 1157.99 353.56 C 1178.32 353.50 1198.64 353.60 1218.97 353.55 C 1221.40 353.48 1223.86 353.87 1226.04 355.03 C 1225.82 359.93 1226.32 364.85 1225.82 369.73 C 1224.03 371.47 1221.34 371.24 1219.06 371.39 C 1200.73 371.41 1182.40 371.43 1164.07 371.44 C 1160.01 371.40 1155.75 371.87 1152.00 369.99 C 1152.09 365.08 1151.56 360.13 1152.18 355.23 Z" />
<path fill="#e69c4e" opacity="1.00" d=" M 1186.36 379.18 C 1186.35 376.55 1189.96 376.78 1191.73 377.38 C 1192.49 379.84 1191.97 382.50 1192.08 385.05 C 1191.83 393.64 1192.43 402.25 1191.94 410.84 C 1190.12 410.61 1186.59 411.64 1186.43 408.93 C 1186.36 399.01 1186.25 389.09 1186.36 379.18 Z" />
<path fill="#e69c4e" opacity="1.00" d=" M 146.03 392.02 C 146.15 388.51 145.00 382.63 149.95 382.12 C 170.32 381.84 190.71 382.08 211.08 382.00 C 213.51 381.81 217.07 382.93 216.79 385.96 C 216.76 390.29 217.41 394.80 216.02 398.99 C 203.71 399.99 191.33 399.18 178.99 399.42 C 169.00 399.22 158.98 399.94 149.02 399.11 C 145.40 398.89 146.09 394.53 146.03 392.02 Z" />
<path fill="#e69c4e" opacity="1.00" d=" M 177.17 407.95 C 177.32 406.40 176.66 403.85 178.90 403.64 C 180.97 403.42 183.04 403.74 185.11 403.91 C 185.67 412.27 185.21 420.66 185.41 429.04 C 185.32 431.56 185.78 434.25 184.71 436.63 C 182.65 437.25 180.40 437.12 178.29 436.76 C 176.74 435.65 177.23 433.57 177.10 431.95 C 177.23 423.95 177.29 415.95 177.17 407.95 Z" />
<path fill="#e69c4e" opacity="1.00" d=" M 1178.86 423.03 C 1178.41 418.10 1183.82 415.62 1187.99 415.56 C 1191.51 415.60 1195.69 414.90 1198.58 417.40 C 1201.22 419.82 1200.98 423.67 1201.00 426.94 C 1200.78 444.28 1201.28 461.64 1200.82 478.97 C 1200.67 481.48 1197.62 480.82 1195.93 481.06 C 1195.33 476.40 1195.58 471.70 1195.55 467.01 C 1195.59 456.13 1195.45 445.24 1195.52 434.36 C 1194.85 434.16 1193.52 433.75 1192.85 433.55 C 1192.67 448.07 1192.83 462.59 1192.80 477.11 C 1192.95 478.91 1192.31 481.55 1189.95 481.04 C 1188.09 481.43 1187.35 479.54 1187.45 478.06 C 1187.13 463.26 1187.39 448.46 1187.14 433.66 C 1186.43 433.78 1185.01 434.02 1184.30 434.14 C 1184.77 448.10 1184.35 462.07 1184.57 476.04 C 1184.30 477.46 1184.93 479.48 1183.56 480.45 C 1182.24 481.77 1180.33 480.58 1178.94 480.05 C 1179.07 461.04 1179.01 442.03 1178.86 423.03 Z" />
<path fill="#e69c4e" opacity="1.00" d=" M 171.02 444.90 C 170.70 442.00 173.18 439.32 176.00 439.04 C 179.29 438.77 182.63 438.73 185.91 439.18 C 189.12 439.77 191.64 442.73 191.19 446.09 C 191.25 461.82 191.27 477.56 191.13 493.30 C 189.49 493.48 187.36 494.54 186.20 492.82 C 186.19 480.86 186.12 468.90 186.25 456.95 C 186.68 455.17 185.39 454.08 183.83 453.65 C 183.18 466.39 184.07 479.18 183.55 491.92 C 183.42 494.40 180.51 493.56 178.92 493.25 C 178.94 480.14 179.04 467.03 178.85 453.93 C 177.90 454.25 176.95 454.58 176.00 454.91 C 176.16 467.91 176.38 480.93 175.96 493.92 C 174.07 493.73 170.59 493.95 171.07 491.07 C 170.92 475.68 171.02 460.29 171.02 444.90 Z" />
<path fill="#e69c4e" opacity="1.00" d=" M 378.91 532.01 C 384.05 521.88 395.85 516.16 406.98 516.88 C 415.96 516.52 424.89 519.57 432.11 524.83 C 439.46 530.38 444.54 539.70 442.80 549.07 C 440.99 557.08 436.75 565.38 429.08 569.14 C 423.10 572.15 414.46 571.44 410.61 565.43 C 408.08 561.92 408.78 557.20 410.89 553.67 C 413.25 554.64 416.03 556.59 418.02 553.91 C 418.01 552.63 418.01 551.37 418.03 550.11 C 415.51 545.79 409.30 545.67 405.95 549.05 C 399.61 554.93 400.62 565.70 406.20 571.78 C 413.65 579.73 427.02 579.54 435.71 573.75 C 443.01 569.11 445.35 560.08 451.11 554.08 C 457.30 551.30 464.75 552.26 470.61 555.48 C 479.44 559.97 485.24 569.23 486.57 578.92 C 487.73 584.58 485.82 590.19 484.72 595.70 C 489.63 596.15 494.51 597.50 498.67 600.21 C 503.96 603.42 509.42 607.68 515.99 607.03 C 519.52 607.04 522.59 605.08 525.64 603.56 C 521.49 615.92 509.06 623.20 496.94 625.91 C 487.78 627.74 478.14 628.53 469.03 625.96 C 459.85 623.56 450.47 618.63 446.06 609.81 C 442.45 603.50 444.19 594.36 450.61 590.57 C 453.11 589.10 456.06 590.20 458.08 591.97 C 458.21 594.14 457.44 596.63 458.44 598.63 C 461.90 600.76 465.47 596.36 465.02 593.01 C 464.76 585.30 455.31 581.11 448.68 583.63 C 442.95 586.12 438.94 591.75 437.67 597.78 C 435.95 605.09 438.71 612.85 443.41 618.49 C 446.09 621.83 449.84 624.00 453.33 626.38 C 447.94 635.48 435.77 639.01 425.91 635.98 C 428.80 629.77 425.85 622.32 420.54 618.47 C 417.14 615.94 411.40 616.22 409.08 620.08 C 407.84 621.60 408.59 623.48 408.88 625.19 C 411.00 625.42 412.86 624.66 414.51 623.40 C 415.72 622.20 416.71 623.75 417.42 624.64 C 418.80 626.48 420.09 628.65 419.99 631.05 C 419.09 635.49 415.09 638.60 410.93 639.87 C 405.57 641.69 399.68 640.47 394.64 638.22 C 388.05 635.03 384.65 627.22 385.55 620.14 C 386.40 616.23 387.90 612.46 388.27 608.45 C 389.54 600.10 385.55 591.21 378.44 586.62 C 370.49 580.70 357.23 584.37 353.83 593.78 C 352.05 598.29 354.33 603.34 357.98 606.19 C 359.83 605.95 362.47 606.28 363.00 603.92 C 363.10 600.54 359.30 597.13 361.78 593.86 C 366.37 588.73 374.94 591.44 378.37 596.62 C 381.70 601.01 381.42 606.87 380.12 611.95 C 378.88 618.27 374.65 624.23 368.40 626.38 C 358.97 629.69 347.83 628.31 339.80 622.24 C 332.45 616.88 328.27 608.21 326.39 599.50 C 324.98 591.02 325.16 581.92 329.09 574.09 C 333.94 563.59 343.22 553.97 355.16 552.42 C 359.61 551.80 364.49 552.33 368.42 554.62 C 372.19 560.76 373.49 568.74 379.60 573.28 C 381.26 574.73 384.07 574.10 384.97 572.08 C 386.00 566.77 380.55 563.61 378.81 559.13 C 375.22 550.64 374.64 540.37 378.91 532.01 Z" />
<path fill="#e69c4e" opacity="1.00" d=" M 750.09 526.92 C 751.26 518.46 764.32 516.06 768.96 522.96 C 771.37 526.12 770.91 530.26 770.98 533.98 C 770.91 548.96 771.21 563.95 770.84 578.92 C 770.35 583.11 763.19 583.34 762.88 579.04 C 762.73 564.03 762.93 549.01 762.87 534.01 C 762.31 530.80 757.73 531.86 758.21 534.94 C 758.15 549.29 758.35 563.65 758.15 577.99 C 758.37 579.70 757.23 580.92 756.17 582.08 C 754.84 582.04 753.52 582.01 752.20 582.01 C 751.23 580.80 749.73 579.73 750.01 577.99 C 750.04 560.97 749.89 543.94 750.09 526.92 Z" />
<path fill="#e69c4e" opacity="1.00" d=" M 1330.88 594.94 C 1332.54 594.97 1334.23 595.01 1335.93 595.07 C 1336.88 600.00 1336.39 605.05 1336.59 610.04 C 1336.42 611.58 1336.97 613.49 1335.69 614.70 C 1334.01 614.80 1331.89 615.25 1330.58 614.00 C 1330.33 607.67 1329.70 601.20 1330.88 594.94 Z" />
<path fill="#e69c4e" opacity="1.00" d=" M 1309.23 618.23 C 1309.90 616.72 1311.68 617.11 1313.02 617.00 C 1327.37 617.00 1341.73 616.99 1356.08 617.01 C 1357.48 616.94 1358.80 617.47 1360.13 617.92 C 1360.22 621.64 1360.29 625.35 1360.21 629.07 C 1358.53 629.61 1356.80 630.09 1355.04 630.01 C 1341.01 629.99 1326.99 630.00 1312.96 630.00 C 1311.51 630.10 1310.18 629.64 1308.95 629.02 C 1309.12 625.42 1308.81 621.80 1309.23 618.23 Z" />
<path fill="#e69c4e" opacity="1.00" d=" M 1302.68 632.62 C 1304.62 632.02 1306.66 632.00 1308.70 631.93 C 1294.78 641.43 1286.77 658.26 1286.97 674.98 C 1287.08 688.13 1291.60 701.54 1300.81 711.13 C 1303.14 713.67 1306.28 715.30 1308.56 717.91 C 1293.90 715.77 1280.38 706.62 1273.51 693.41 C 1268.04 683.89 1266.60 671.94 1270.60 661.61 C 1275.88 647.54 1288.43 636.90 1302.68 632.62 Z" />
<path fill="#e69c4e" opacity="1.00" d=" M 1329.39 633.27 C 1332.34 632.04 1335.73 632.91 1338.87 632.95 C 1345.45 641.14 1347.68 651.77 1348.82 661.97 C 1349.93 676.97 1349.35 692.37 1344.76 706.80 C 1343.31 710.51 1342.09 714.73 1338.85 717.30 C 1335.99 717.58 1333.04 717.79 1330.25 717.16 C 1326.64 713.39 1325.05 708.24 1323.42 703.42 C 1319.34 689.65 1319.50 675.09 1320.32 660.90 C 1321.77 651.36 1323.16 641.01 1329.39 633.27 Z" />
<path fill="#e69c4e" opacity="1.00" d=" M 1360.23 631.61 C 1375.43 633.35 1388.94 643.58 1396.06 656.94 C 1400.53 665.56 1402.41 675.89 1399.36 685.30 C 1393.88 702.60 1377.55 715.54 1359.71 718.04 C 1364.57 714.20 1369.62 710.41 1372.95 705.05 C 1385.04 686.80 1385.35 660.75 1372.10 643.00 C 1368.88 638.48 1364.52 635.04 1360.23 631.61 Z" />
<path fill="#e69c4e" opacity="1.00" d=" M 809.05 635.89 C 808.73 633.32 812.08 633.37 813.85 633.08 C 835.58 632.89 857.31 633.06 879.03 633.00 C 881.06 632.89 883.05 633.41 884.96 634.08 C 885.77 638.61 885.60 643.24 885.48 647.82 C 885.47 649.04 884.62 650.02 884.11 651.07 C 860.05 650.89 835.99 651.07 811.94 650.98 C 810.81 650.99 809.87 650.58 809.13 649.75 C 808.78 645.14 808.97 640.50 809.05 635.89 Z" />
<path fill="#e69c4e" opacity="1.00" d=" M 1314.27 634.10 C 1317.21 632.42 1320.71 632.92 1323.95 632.79 C 1318.42 641.91 1316.28 652.54 1315.15 663.01 C 1314.14 681.46 1314.72 701.13 1324.38 717.48 C 1315.97 717.95 1308.47 712.96 1303.19 706.84 C 1291.24 693.04 1288.79 672.36 1295.63 655.67 C 1299.21 646.68 1305.64 638.65 1314.27 634.10 Z" />
<path fill="#e69c4e" opacity="1.00" d=" M 1344.66 632.71 C 1348.31 632.90 1352.31 632.32 1355.58 634.38 C 1369.27 641.96 1376.89 657.75 1377.03 673.07 C 1377.53 689.80 1369.57 707.30 1354.69 715.75 C 1351.88 717.69 1348.35 717.46 1345.11 717.59 C 1350.13 709.26 1352.27 699.60 1353.54 690.07 C 1354.88 679.10 1354.88 667.95 1353.27 657.01 C 1351.78 648.53 1349.86 639.78 1344.66 632.71 Z" />
<path fill="#e69c4e" opacity="1.00" d=" M 802.95 655.60 C 803.52 655.45 806.81 655.39 804.96 656.46 C 797.04 662.24 789.55 668.91 784.38 677.35 C 775.29 691.10 770.77 707.57 770.62 723.99 C 769.63 748.35 779.28 773.16 797.20 789.83 C 800.36 792.91 804.26 795.10 807.50 798.10 C 795.21 797.44 783.74 791.97 773.58 785.34 C 761.89 777.84 752.51 766.89 746.48 754.42 C 739.02 739.14 738.25 720.88 743.93 704.90 C 752.65 679.42 776.17 659.35 802.95 655.60 Z" />
<path fill="#e69c4e" opacity="1.00" d=" M 810.37 659.40 C 814.00 657.54 817.72 655.22 821.95 655.30 C 824.83 655.21 827.73 655.35 830.62 655.57 C 820.10 671.29 816.32 690.39 814.82 708.96 C 813.16 725.63 814.22 742.49 816.99 758.99 C 819.20 772.39 823.02 785.74 830.32 797.32 C 825.66 797.04 820.69 797.80 816.36 795.71 C 803.91 790.02 793.91 779.79 787.23 767.96 C 777.78 751.81 775.13 732.40 777.04 713.98 C 779.38 692.13 791.17 670.73 810.37 659.40 Z" />
<path fill="#e69c4e" opacity="1.00" d=" M 830.53 668.38 C 832.90 663.63 835.38 658.40 840.09 655.54 C 844.68 655.24 849.31 655.41 853.92 655.48 C 859.14 656.97 862.01 662.06 864.69 666.38 C 871.13 678.25 873.26 691.89 874.73 705.16 C 875.78 721.12 875.77 737.22 873.56 753.09 C 871.79 765.46 868.80 777.82 862.95 788.95 C 861.47 791.99 859.32 794.63 856.96 797.04 C 851.30 797.07 845.64 797.19 839.98 797.05 C 837.72 797.27 836.47 795.09 835.30 793.56 C 829.10 784.14 826.29 773.00 824.18 762.06 C 821.28 744.26 820.30 726.10 821.78 708.11 C 822.55 694.53 825.05 680.89 830.53 668.38 Z" />
<path fill="#e69c4e" opacity="1.00" d=" M 864.72 655.46 C 870.61 655.70 876.98 654.67 882.34 657.75 C 892.54 663.00 901.05 671.29 907.10 681.00 C 916.61 695.52 920.42 713.34 919.26 730.56 C 918.19 757.26 902.86 783.57 878.85 795.85 C 874.65 797.89 869.84 796.93 865.36 797.12 C 871.90 786.75 875.27 774.81 877.96 762.96 C 880.91 749.19 881.80 735.05 881.84 721.00 C 881.18 698.37 878.34 674.33 864.72 655.46 Z" />
<path fill="#e69c4e" opacity="1.00" d=" M 890.66 655.75 C 896.96 655.45 902.91 657.88 908.55 660.42 C 920.91 666.18 932.13 674.66 940.44 685.54 C 948.17 695.81 953.66 708.10 954.36 721.06 C 956.38 741.66 947.19 762.24 932.28 776.22 C 924.79 783.46 915.81 789.07 906.30 793.24 C 900.35 795.68 894.17 798.18 887.63 798.03 C 905.17 786.11 918.06 767.64 923.09 747.03 C 930.01 720.14 923.79 689.74 905.25 668.79 C 901.01 663.78 895.83 659.73 890.66 655.75 Z" />
<path fill="#e69c4e" opacity="1.00" d=" M 110.71 713.73 C 120.00 701.83 136.30 695.97 151.03 699.15 C 166.97 702.56 180.04 717.41 179.94 733.95 C 179.58 739.01 178.86 744.47 175.36 748.41 C 172.56 751.63 169.24 754.91 164.87 755.69 C 159.33 756.91 153.61 751.71 153.84 746.16 C 156.18 745.49 158.50 744.74 160.77 743.86 C 160.99 743.35 161.44 742.32 161.66 741.81 C 159.04 734.95 148.65 738.11 147.32 744.31 C 144.55 756.06 158.62 767.04 169.49 762.48 C 176.37 759.99 181.41 754.03 184.51 747.59 C 187.19 742.62 187.31 736.86 188.47 731.52 C 193.49 727.82 199.89 726.39 206.03 726.18 C 214.48 726.59 222.05 731.29 227.96 737.07 C 236.29 745.25 241.07 757.37 239.14 769.05 C 238.49 774.35 235.58 779.15 231.65 782.70 C 227.02 786.96 221.52 791.25 214.89 791.15 C 210.57 791.58 206.07 790.12 203.22 786.76 C 200.82 783.81 198.11 780.21 199.13 776.17 C 201.19 773.42 205.66 773.37 206.95 769.89 C 207.83 766.49 203.67 765.08 201.03 765.88 C 193.71 767.88 189.03 776.87 192.12 783.93 C 196.06 793.46 206.27 800.87 216.85 799.38 C 224.43 798.21 231.00 793.44 236.20 788.03 C 241.66 793.48 247.42 799.25 255.09 801.33 C 260.91 803.13 266.69 800.04 271.59 797.18 C 268.79 807.18 261.45 815.66 252.15 820.20 C 241.16 825.91 228.35 826.19 216.29 824.99 C 211.70 830.97 205.84 836.79 198.03 837.90 C 191.60 838.62 184.76 838.56 178.75 835.87 C 179.42 829.85 182.37 824.20 182.02 818.05 C 181.65 807.83 173.70 798.26 163.48 796.65 C 154.02 793.80 141.85 801.56 142.92 812.03 C 142.86 817.71 148.21 823.04 154.04 822.14 C 155.82 820.93 157.47 819.47 157.27 817.11 C 155.20 816.02 152.88 815.38 151.00 813.97 C 150.31 810.96 150.56 807.18 153.51 805.46 C 158.85 801.91 166.75 803.54 170.67 808.53 C 175.99 814.46 175.39 823.81 171.20 830.18 C 154.52 850.58 121.00 854.43 100.46 837.72 C 94.63 833.34 90.51 827.20 86.97 820.93 C 77.49 824.51 66.32 825.58 56.96 821.04 C 51.69 818.59 47.64 814.30 42.75 811.26 C 34.91 806.23 25.65 802.57 16.18 803.53 C 12.39 803.77 8.79 805.02 5.26 806.34 C 10.90 795.29 19.89 785.07 31.96 781.06 C 38.26 778.81 45.10 778.58 51.63 779.79 C 53.47 766.23 60.65 752.61 73.03 745.99 C 80.38 741.84 89.16 740.91 97.37 742.47 C 105.86 744.27 112.98 750.13 118.00 757.01 C 123.63 764.45 123.61 775.59 117.98 783.02 C 115.41 786.75 111.11 788.77 106.88 790.00 C 103.46 791.06 99.10 789.96 97.56 786.46 C 95.13 783.07 99.33 778.83 96.17 775.71 C 93.44 775.80 90.59 777.27 89.90 780.10 C 88.32 784.59 90.00 789.52 92.84 793.11 C 98.01 798.69 106.71 799.45 113.41 796.42 C 120.73 793.18 126.48 786.56 128.71 778.89 C 131.26 770.79 129.88 761.66 125.56 754.42 C 120.45 745.67 111.82 739.49 102.15 736.73 C 102.77 728.46 105.34 720.16 110.71 713.73 Z" />
<path fill="#e69c4e" opacity="1.00" d=" M 1311.19 721.44 C 1316.31 720.41 1321.72 721.27 1326.97 721.00 C 1335.63 720.99 1344.30 721.01 1352.97 720.98 C 1354.37 721.02 1356.08 720.75 1357.02 722.13 C 1357.43 725.38 1357.44 728.71 1357.00 731.97 C 1356.54 733.55 1354.43 733.62 1353.08 733.84 C 1340.71 734.06 1328.32 733.82 1315.95 733.85 C 1313.90 733.75 1310.23 733.92 1310.38 730.96 C 1310.40 727.82 1309.55 724.28 1311.19 721.44 Z" />
<path fill="#e69c4e" opacity="1.00" d=" M 1332.48 737.29 C 1332.94 735.32 1335.48 736.35 1336.93 735.97 C 1337.11 744.07 1336.88 752.17 1337.07 760.28 C 1335.81 760.72 1334.50 761.24 1333.17 760.87 C 1331.95 759.54 1332.42 757.61 1332.33 756.01 C 1332.55 749.77 1332.21 743.52 1332.48 737.29 Z" />
<path fill="#e69c4e" opacity="1.00" d=" M 1330.28 764.34 C 1333.71 763.87 1338.57 762.82 1340.81 766.33 C 1342.04 769.39 1341.37 772.80 1341.54 776.02 C 1341.34 782.43 1342.03 788.89 1341.30 795.28 C 1340.70 798.81 1336.57 797.92 1334.01 798.03 C 1331.75 798.11 1327.76 798.30 1328.00 795.01 C 1327.83 786.34 1327.87 777.66 1327.94 768.99 C 1327.80 767.16 1328.57 765.20 1330.28 764.34 Z" />
<path fill="#e69c4e" opacity="1.00" d=" M 987.44 769.51 C 1013.94 768.85 1040.49 769.41 1067.01 769.24 C 1071.61 769.38 1077.64 769.05 1080.27 773.71 C 1084.13 778.61 1080.68 786.37 1074.95 787.91 C 1068.55 788.62 1062.05 787.60 1055.69 788.56 C 1048.02 790.52 1045.41 801.08 1050.05 807.06 C 1051.86 809.49 1054.85 811.11 1057.92 811.00 C 1077.63 811.05 1097.36 810.89 1117.07 811.08 C 1123.51 811.52 1127.26 819.54 1124.02 824.95 C 1122.25 828.16 1118.60 829.74 1115.05 829.64 C 1104.36 829.74 1093.68 829.63 1083.00 829.62 C 1078.54 829.46 1074.00 832.00 1072.31 836.22 C 1071.27 839.61 1071.98 843.67 1074.93 845.92 C 1079.38 849.82 1085.65 848.59 1091.06 848.75 C 1116.70 848.78 1142.35 848.51 1167.98 848.93 C 1173.72 848.46 1178.89 854.59 1177.29 860.18 C 1175.97 864.49 1171.49 867.65 1166.94 867.24 C 1116.63 867.33 1066.33 867.24 1016.02 867.28 C 1010.54 867.46 1003.66 867.98 1000.30 862.64 C 996.06 857.01 1001.68 849.21 1008.00 848.87 C 1019.34 848.42 1030.70 848.92 1042.05 848.66 C 1046.98 848.39 1051.71 844.16 1051.27 838.98 C 1051.58 833.11 1045.37 829.23 1040.03 829.62 C 1010.34 829.68 980.65 829.59 950.96 829.70 C 947.65 829.65 944.28 829.94 941.03 829.23 C 936.87 828.41 933.41 824.33 933.92 820.00 C 933.74 814.83 938.95 810.43 944.00 811.00 C 969.35 811.01 994.71 810.98 1020.07 811.01 C 1025.17 811.26 1029.96 807.09 1030.73 802.10 C 1032.04 795.56 1026.89 788.41 1020.05 788.29 C 1009.75 787.94 999.42 788.33 989.12 788.22 C 983.49 788.47 978.12 782.69 979.54 777.07 C 980.21 773.18 983.68 770.26 987.44 769.51 Z" />
<path fill="#e69c4e" opacity="1.00" d=" M 812.21 802.25 C 820.42 801.45 828.73 802.15 836.98 801.96 C 851.99 802.08 867.01 801.78 882.02 802.04 C 883.71 801.92 885.48 803.21 885.36 805.04 C 885.42 809.51 886.12 814.26 884.70 818.57 C 882.05 820.10 878.88 819.98 875.93 820.01 C 856.25 819.94 836.57 820.10 816.90 819.93 C 814.61 819.66 811.25 819.54 810.36 816.99 C 809.97 813.01 810.08 808.98 810.26 805.00 C 810.14 803.71 811.04 802.66 812.21 802.25 Z" />
<path fill="#e69c4e" opacity="1.00" d=" M 845.10 825.96 C 847.01 825.82 848.93 825.82 850.86 825.93 C 851.13 834.94 850.98 843.96 850.95 852.97 C 849.16 852.80 847.13 853.46 845.53 852.55 C 844.78 851.15 845.11 849.47 845.00 847.97 C 845.04 840.63 845.06 833.29 845.10 825.96 Z" />
<path fill="#e69c4e" opacity="1.00" d=" M 841.64 857.37 C 844.76 856.21 848.23 856.61 851.50 856.84 C 854.52 857.01 857.28 859.77 856.98 862.90 C 856.98 877.91 857.08 892.93 856.92 907.94 C 855.53 908.01 854.15 908.09 852.79 908.18 C 852.65 896.82 852.73 885.46 852.80 874.10 C 852.09 874.02 850.69 873.87 849.99 873.79 C 850.02 885.22 849.99 896.64 850.00 908.07 C 848.63 908.09 847.26 908.12 845.91 908.17 C 845.43 896.83 846.26 885.45 845.59 874.14 L 844.93 873.36 C 844.47 873.46 843.55 873.68 843.09 873.79 C 842.88 885.26 843.06 896.73 843.00 908.21 C 841.63 908.15 840.27 908.10 838.93 908.06 C 837.63 895.11 838.69 882.04 838.15 869.05 C 838.28 865.06 837.23 859.49 841.64 857.37 Z" />
<path fill="#e69c4e" opacity="1.00" d=" M 373.29 928.46 C 378.09 927.20 383.14 927.93 388.05 927.66 C 417.02 927.77 446.00 927.65 474.97 927.83 C 480.60 927.72 486.26 933.21 484.94 939.03 C 484.42 943.41 480.13 946.34 475.94 946.46 C 465.67 946.56 455.39 946.26 445.12 946.60 C 439.40 946.68 434.71 952.34 435.18 957.93 C 435.85 963.19 440.67 967.38 445.90 967.67 C 456.63 968.26 467.39 967.51 478.11 968.00 C 484.70 969.13 487.58 978.17 483.08 983.05 C 480.99 985.95 477.44 987.20 473.96 986.96 C 421.62 987.03 369.28 986.98 316.95 986.97 C 310.62 987.44 304.86 981.36 306.10 975.05 C 307.12 970.66 311.49 967.38 316.02 967.87 C 345.37 967.78 374.73 967.89 404.08 967.83 C 410.29 968.28 417.16 963.61 417.06 956.99 C 417.45 951.36 412.14 946.79 406.78 946.63 C 396.21 946.16 385.61 946.86 375.05 946.27 C 370.32 946.19 366.20 941.69 366.61 936.96 C 366.29 932.87 369.78 929.78 373.29 928.46 Z" />
</g>
</svg>
