<?xml version="1.0" encoding="UTF-8" ?>
<!DOCTYPE svg PUBLIC "-//W3C//DTD SVG 1.1//EN" "http://www.w3.org/Graphics/SVG/1.1/DTD/svg11.dtd">
<svg width="609pt" height="609pt" viewBox="0 0 609 609" version="1.1" xmlns="http://www.w3.org/2000/svg">
<g id="#008ef0ff">
<path fill="#008ef0" opacity="1.00" d=" M 178.09 290.24 C 221.60 235.87 247.22 168.49 255.84 99.70 C 270.31 99.54 284.78 99.65 299.24 99.61 C 299.40 158.87 299.23 218.12 299.29 277.37 C 291.77 279.95 284.84 285.04 281.48 292.43 C 275.46 304.41 280.05 320.58 291.81 327.22 C 300.57 332.33 312.13 332.11 320.65 326.58 C 332.26 319.50 336.31 303.07 329.73 291.25 C 326.17 284.59 319.82 279.69 312.69 277.35 C 312.78 218.13 312.62 158.91 312.78 99.69 C 327.22 99.59 341.66 99.59 356.10 99.69 C 360.47 138.24 370.88 176.05 386.49 211.56 C 398.60 239.80 414.78 266.14 433.59 290.40 C 425.11 303.70 416.62 317.03 409.44 331.09 C 396.14 356.77 385.17 383.73 377.84 411.74 C 330.02 411.94 282.20 411.81 234.38 411.80 C 225.19 378.28 211.36 346.10 193.98 316.03 C 189.03 307.22 183.36 298.85 178.09 290.24 Z" />
<path fill="#008ef0" opacity="1.00" d=" M 227.44 425.74 C 233.83 424.06 240.49 425.13 247.00 425.12 C 284.34 425.19 321.68 424.72 359.02 424.98 C 367.19 425.01 375.46 424.24 383.57 425.55 C 394.59 428.28 399.99 441.78 396.13 451.95 C 393.75 459.12 386.58 464.23 379.03 464.14 C 330.35 464.19 281.68 464.18 233.00 464.14 C 225.75 464.31 218.85 459.47 216.24 452.75 C 211.70 442.82 216.66 429.05 227.44 425.74 Z" />
<path fill="#008ef0" opacity="1.00" d=" M 229.96 477.29 C 280.70 477.21 331.45 477.29 382.20 477.29 C 382.19 488.90 382.23 500.50 382.21 512.11 C 331.56 512.35 280.91 511.94 230.26 512.32 C 230.09 510.56 229.83 508.81 229.89 507.05 C 230.16 497.13 229.55 487.21 229.96 477.29 Z" />
</g>
</svg>
